<svg width="500" height="333" viewBox="0 0 500 333" fill="none" xmlns="http://www.w3.org/2000/svg">
<path d="M131.827 17.3246C131.827 18.2323 131.827 19.1869 131.827 20.1885C131.827 21.1901 131.717 22.1448 131.498 23.0525C131.341 23.7411 131.169 24.3514 130.981 24.8835C130.794 25.3843 130.559 25.8538 130.277 26.292C129.996 26.6989 129.651 27.0902 129.244 27.4658C128.837 27.8101 128.337 28.1544 127.742 28.4987C127.554 28.6239 127.053 28.7961 126.24 29.0152C125.426 29.203 124.408 29.4377 123.188 29.7194C121.998 30.0011 120.652 30.2985 119.15 30.6115C117.679 30.9245 116.161 31.2375 114.596 31.5505C113.062 31.8322 111.529 32.1295 109.995 32.4425C108.492 32.7242 107.115 32.9903 105.863 33.2407C104.643 33.4598 103.594 33.6632 102.718 33.851C101.872 34.0075 101.309 34.1014 101.027 34.1327C100.495 28.4048 99.9944 22.7238 99.5249 17.0898C99.0554 11.4558 98.6955 5.75921 98.4451 0C101.074 0.0939002 103.688 0.20345 106.286 0.328651C108.884 0.422551 111.513 0.563401 114.173 0.751201C114.862 0.813801 115.864 0.892052 117.178 0.985952C118.524 1.07985 119.917 1.2207 121.357 1.4085C122.797 1.565 124.142 1.76845 125.394 2.01885C126.678 2.26925 127.601 2.58225 128.164 2.95786C128.884 3.48996 129.526 4.20986 130.089 5.11756C130.653 6.02526 131.06 6.91731 131.31 7.79371C131.435 8.20061 131.529 8.84227 131.592 9.71867C131.654 10.5638 131.701 11.4715 131.733 12.4418C131.764 13.4121 131.78 14.3511 131.78 15.2588C131.811 16.1665 131.827 16.8551 131.827 17.3246ZM120.136 17.9349C120.136 17.5906 120.12 17.2307 120.089 16.8551C120.089 16.4482 120.073 16.0726 120.042 15.7283C119.98 15.2275 119.886 14.711 119.76 14.1789C119.667 13.6155 119.526 13.0834 119.338 12.5826C119.15 12.0505 118.915 11.5654 118.634 11.1272C118.352 10.6577 118.008 10.2508 117.601 9.90647C117.382 9.71867 116.85 9.57782 116.004 9.48392C115.159 9.35872 114.236 9.28047 113.234 9.24917C112.233 9.18657 111.294 9.15527 110.417 9.15527C109.541 9.12397 108.978 9.10832 108.727 9.10832H106.802C107.053 11.5497 107.272 13.9598 107.46 16.3386C107.679 18.6861 107.866 21.0806 108.023 23.522C108.618 23.4907 109.463 23.4124 110.558 23.2872C111.685 23.1307 112.827 22.9429 113.986 22.7238C115.144 22.4734 116.224 22.1761 117.225 21.8318C118.227 21.4562 118.947 21.018 119.385 20.5172C119.729 20.1416 119.933 19.7503 119.995 19.3434C120.089 18.9052 120.136 18.4357 120.136 17.9349Z" fill="white"/>
<path d="M171.781 15.5874C171.781 15.8378 171.781 16.0882 171.781 16.3386C171.781 16.5577 171.765 16.7925 171.734 17.0429C171.703 17.4811 171.625 18.201 171.499 19.2026C171.374 20.2042 171.202 21.2527 170.983 22.3482C170.764 23.4124 170.498 24.3984 170.185 25.3061C169.872 26.2138 169.528 26.7928 169.152 27.0432C168.964 27.1684 168.322 27.278 167.227 27.3719C166.163 27.4658 164.848 27.5597 163.283 27.6536C161.749 27.7475 160.075 27.8258 158.259 27.8884C156.444 27.951 154.707 28.0136 153.048 28.0762C151.42 28.1075 149.981 28.1388 148.729 28.1701C147.508 28.2014 146.694 28.217 146.287 28.217C146.099 28.217 145.771 28.217 145.301 28.217C144.863 28.217 144.394 28.217 143.893 28.217C143.392 28.1857 142.922 28.1544 142.484 28.1231C142.046 28.0918 141.733 28.0449 141.545 27.9823C141.107 27.8258 140.669 27.5753 140.231 27.231C139.792 26.8554 139.386 26.4485 139.01 26.0103C138.634 25.5408 138.29 25.0713 137.977 24.6018C137.695 24.101 137.492 23.6315 137.367 23.1933C137.273 22.849 137.195 22.3326 137.132 21.644C137.069 20.9241 137.022 20.1885 136.991 19.4373C136.96 18.6548 136.929 17.9036 136.897 17.1837C136.897 16.4638 136.897 15.9161 136.897 15.5405C136.897 14.9458 136.913 14.132 136.944 13.0991C136.975 12.0349 137.069 10.955 137.226 9.85952C137.382 8.76402 137.601 7.74676 137.883 6.80776C138.196 5.83746 138.634 5.16451 139.198 4.78891C139.448 4.63241 139.918 4.49156 140.606 4.36636C141.295 4.24116 142.109 4.13161 143.048 4.03771C143.987 3.94381 144.988 3.88121 146.052 3.84991C147.117 3.78731 148.15 3.75601 149.151 3.75601C150.184 3.72471 151.139 3.70906 152.015 3.70906C152.892 3.70906 153.596 3.72471 154.128 3.75601C154.597 3.78731 155.27 3.81861 156.147 3.84991C157.023 3.84991 157.993 3.86556 159.058 3.89686C160.153 3.92816 161.28 3.99076 162.438 4.08466C163.596 4.14726 164.676 4.24116 165.678 4.36636C166.679 4.49156 167.556 4.66371 168.307 4.88281C169.089 5.07061 169.606 5.30536 169.856 5.58706C170.263 6.02526 170.592 6.68256 170.842 7.55896C171.093 8.43537 171.28 9.37437 171.406 10.376C171.562 11.3463 171.656 12.3166 171.687 13.2869C171.75 14.2259 171.781 14.9927 171.781 15.5874ZM161.828 16.5734C161.828 16.1978 161.812 15.7596 161.781 15.2588C161.749 14.758 161.703 14.2572 161.64 13.7564C161.577 13.2243 161.483 12.7235 161.358 12.254C161.233 11.7532 161.077 11.3463 160.889 11.0333C160.638 10.6264 160.153 10.3134 159.433 10.0943C158.713 9.87517 157.915 9.71867 157.039 9.62477C156.194 9.49957 155.349 9.42132 154.503 9.39002C153.69 9.35872 153.079 9.34307 152.672 9.34307C152.453 9.34307 152.062 9.35872 151.499 9.39002C150.935 9.39002 150.341 9.40567 149.715 9.43697C149.12 9.46827 148.556 9.53087 148.024 9.62477C147.492 9.68737 147.148 9.76562 146.991 9.85952C146.71 10.0473 146.491 10.3447 146.334 10.7516C146.178 11.1272 146.052 11.5497 145.959 12.0192C145.896 12.4887 145.849 12.9582 145.818 13.4277C145.818 13.8659 145.818 14.2259 145.818 14.5076C145.818 14.7893 145.833 15.3057 145.865 16.0569C145.927 16.7768 145.99 17.5593 146.052 18.4044C146.146 19.2182 146.256 19.9694 146.381 20.658C146.506 21.3466 146.663 21.7848 146.851 21.9726C147.07 22.223 147.477 22.4265 148.071 22.583C148.697 22.7395 149.355 22.8803 150.043 23.0055C150.763 23.0994 151.452 23.1777 152.109 23.2403C152.766 23.2716 153.236 23.2872 153.518 23.2872C154.018 23.2872 154.613 23.2716 155.302 23.2403C155.99 23.209 156.679 23.1307 157.367 23.0055C158.087 22.8803 158.76 22.7082 159.386 22.4891C160.012 22.27 160.513 21.9726 160.889 21.597C161.108 21.3779 161.28 21.0493 161.405 20.6111C161.53 20.1729 161.624 19.7034 161.687 19.2026C161.749 18.7018 161.781 18.2166 161.781 17.7471C161.812 17.2463 161.828 16.8551 161.828 16.5734Z" fill="white"/>
<path d="M208.543 16.7612C204.443 16.9803 200.358 17.1681 196.289 17.3246C192.22 17.4498 188.135 17.5906 184.035 17.7471C184.004 17.8723 183.988 17.9975 183.988 18.1227C183.988 18.2479 183.988 18.3731 183.988 18.4983C183.988 19.5625 184.223 20.3763 184.692 20.9397C185.193 21.5031 185.804 21.91 186.523 22.1604C187.243 22.3795 188.042 22.5047 188.918 22.536C189.794 22.5673 190.608 22.583 191.359 22.583C193.456 22.583 195.554 22.5204 197.651 22.3952C199.748 22.2387 201.86 22.0822 203.989 21.9257L204.364 29.3908C202.299 29.4847 200.233 29.5629 198.167 29.6255C196.133 29.6881 194.082 29.7194 192.017 29.7194C191.578 29.7194 190.765 29.7194 189.575 29.7194C188.417 29.6881 187.165 29.6412 185.819 29.5786C184.505 29.4847 183.268 29.3751 182.11 29.2499C180.952 29.1247 180.185 28.9526 179.81 28.7335C178.839 28.1701 178.072 27.4501 177.509 26.5737C176.977 25.6973 176.554 24.7427 176.241 23.7098C175.96 22.6769 175.756 21.6283 175.631 20.5641C175.537 19.4686 175.475 18.4201 175.443 17.4185C175.412 17.262 175.396 17.1055 175.396 16.949C175.428 16.7612 175.443 16.589 175.443 16.4325C175.443 14.7736 175.615 13.2399 175.96 11.8314C176.335 10.3916 177.008 8.99877 177.979 7.65286C178.636 6.71386 179.606 5.93136 180.889 5.30536C182.173 4.67936 183.566 4.19421 185.068 3.84991C186.57 3.47431 188.073 3.22391 189.575 3.09871C191.078 2.94221 192.377 2.86396 193.472 2.86396C194.442 2.86396 195.632 2.95786 197.04 3.14566C198.449 3.30216 199.842 3.58386 201.219 3.99076C202.627 4.39766 203.895 4.92976 205.022 5.58706C206.149 6.21306 206.915 6.99556 207.322 7.93456C207.385 8.12236 207.448 8.45102 207.51 8.92052C207.604 9.35872 207.698 9.87517 207.792 10.4699C207.886 11.0333 207.964 11.6436 208.027 12.3009C208.12 12.9582 208.199 13.5842 208.261 14.1789C208.324 14.7736 208.371 15.3057 208.402 15.7752C208.465 16.2447 208.512 16.5734 208.543 16.7612ZM202.158 13.3338C201.97 11.9566 201.61 10.8768 201.078 10.0943C200.577 9.28047 199.936 8.68577 199.153 8.31016C198.402 7.90326 197.525 7.65286 196.524 7.55896C195.554 7.43376 194.505 7.37116 193.378 7.37116C193.003 7.37116 192.533 7.38681 191.97 7.41811C191.406 7.41811 190.843 7.46506 190.279 7.55896C189.716 7.62156 189.184 7.73111 188.683 7.88761C188.182 8.04411 187.791 8.26321 187.509 8.54492C187.29 8.73272 187.102 8.99877 186.946 9.34307C186.821 9.65607 186.711 10.0004 186.617 10.376C186.523 10.7516 186.445 11.1272 186.383 11.5028C186.351 11.8471 186.336 12.1444 186.336 12.3948C186.336 12.8956 186.383 13.3808 186.476 13.8503L202.158 13.3338Z" fill="white"/>
<path d="M238.215 1.5963L237.934 7.69981C236.963 7.63721 235.993 7.59026 235.023 7.55896C234.053 7.52766 233.082 7.51201 232.112 7.51201C231.705 7.51201 231.126 7.52766 230.375 7.55896C229.624 7.55896 228.779 7.57461 227.84 7.60591C226.932 7.63721 225.993 7.68416 225.023 7.74676C224.052 7.80936 223.16 7.87196 222.346 7.93456C221.533 7.99716 220.844 8.07541 220.281 8.16931C219.717 8.26321 219.373 8.35712 219.248 8.45102C218.841 8.85792 218.637 9.32742 218.637 9.85952C218.637 10.2038 218.731 10.4855 218.919 10.7046C218.982 10.7985 219.326 10.8768 219.952 10.9394C220.578 11.002 221.345 11.0646 222.252 11.1272C223.16 11.1585 224.146 11.1898 225.21 11.2211C226.306 11.2211 227.339 11.2367 228.309 11.268C229.311 11.268 230.187 11.2837 230.938 11.315C231.721 11.3463 232.268 11.3776 232.581 11.4089C233.771 11.5654 234.71 11.9097 235.398 12.4418C236.118 12.9739 236.666 13.6468 237.042 14.4606C237.417 15.2431 237.652 16.1352 237.746 17.1368C237.871 18.1384 237.934 19.1556 237.934 20.1885C237.934 20.6893 237.887 21.284 237.793 21.9726C237.73 22.6612 237.621 23.3498 237.464 24.0384C237.308 24.727 237.073 25.3687 236.76 25.9634C236.478 26.5581 236.134 27.0276 235.727 27.3719C235.258 27.7475 234.491 28.0605 233.427 28.3109C232.394 28.5613 231.267 28.7648 230.046 28.9213C228.857 29.0778 227.699 29.1873 226.572 29.2499C225.445 29.3125 224.584 29.3438 223.99 29.3438C221.924 29.3438 219.858 29.2343 217.792 29.0152C215.726 28.7648 213.676 28.4987 211.642 28.217V19.2495C213.614 19.6564 215.586 19.8912 217.557 19.9538C219.561 20.0164 221.564 20.1259 223.567 20.2824C223.974 20.3137 224.584 20.345 225.398 20.3763C226.243 20.3763 227.088 20.3607 227.933 20.3294C228.779 20.2668 229.545 20.1572 230.234 20.0007C230.923 19.8442 231.345 19.6251 231.502 19.3434C231.564 19.2495 231.596 19.14 231.596 19.0148C231.596 18.8896 231.596 18.78 231.596 18.6861C231.596 18.4357 231.564 18.1227 231.502 17.7471C231.47 17.3402 231.376 17.0272 231.22 16.8081C231.189 16.7768 231.079 16.7612 230.891 16.7612C230.703 16.7299 230.594 16.7142 230.563 16.7142C228.81 16.6203 227.057 16.5734 225.304 16.5734C223.551 16.5421 221.783 16.4482 219.999 16.2917C219.279 16.2291 218.543 16.1665 217.792 16.1039C217.072 16.01 216.352 15.8848 215.633 15.7283C215.038 15.6031 214.49 15.4622 213.989 15.3057C213.52 15.1492 213.097 14.9458 212.722 14.6954C212.377 14.445 212.08 14.132 211.83 13.7564C211.579 13.3495 211.407 12.8174 211.313 12.1601C211.25 11.941 211.219 11.7375 211.219 11.5497C211.219 11.3306 211.219 11.0959 211.219 10.8455C211.219 10.2821 211.25 9.64042 211.313 8.92052C211.376 8.20061 211.485 7.48071 211.642 6.76081C211.83 6.04091 212.049 5.36796 212.299 4.74196C212.581 4.08466 212.941 3.55256 213.379 3.14566C213.661 2.86396 214.161 2.6292 214.881 2.4414C215.601 2.2536 216.431 2.0971 217.37 1.9719C218.309 1.8154 219.31 1.6902 220.374 1.5963C221.439 1.5024 222.456 1.4398 223.426 1.4085C224.428 1.3459 225.32 1.3146 226.102 1.3146C226.916 1.2833 227.527 1.26765 227.933 1.26765C229.686 1.26765 231.408 1.29895 233.098 1.36155C234.819 1.42415 236.525 1.5024 238.215 1.5963Z" fill="white"/>
<path d="M294.274 24.9305C294.274 25.2748 294.274 25.7756 294.274 26.4329C294.274 27.0902 294.258 27.8414 294.227 28.6865C294.196 29.5003 294.149 30.3611 294.086 31.2688C294.055 32.1452 294.008 32.9903 293.945 33.8041C293.883 34.5866 293.789 35.2752 293.664 35.8699C293.57 36.4959 293.46 36.9341 293.335 37.1845C292.803 38.0296 292.302 38.6712 291.832 39.1094C291.394 39.5789 290.909 39.9076 290.377 40.0954C289.845 40.2832 289.235 40.3771 288.546 40.3771C287.889 40.4084 287.106 40.424 286.198 40.424C283.194 40.424 280.205 40.2988 277.231 40.0484C274.258 39.8293 271.284 39.5633 268.31 39.2503V32.8181C268.592 32.8181 269.203 32.8181 270.142 32.8181C271.112 32.7868 272.239 32.7555 273.522 32.7242C274.805 32.6929 276.167 32.646 277.607 32.5834C279.046 32.5208 280.392 32.4425 281.644 32.3486C282.896 32.2547 283.976 32.1452 284.884 32.02C285.792 31.8948 286.355 31.7383 286.574 31.5505C286.856 31.3314 287.075 31.0027 287.231 30.5645C287.419 30.095 287.544 29.6099 287.607 29.1091C287.701 28.6083 287.763 28.1075 287.795 27.6066C287.826 27.1058 287.842 26.6989 287.842 26.3859C287.842 26.0729 287.842 25.7756 287.842 25.4939C287.842 25.2122 287.826 24.8992 287.795 24.5549C287.325 25.6191 286.699 26.4172 285.917 26.9493C285.134 27.4814 284.258 27.8571 283.288 28.0762C282.317 28.2953 281.3 28.4205 280.236 28.4518C279.172 28.4518 278.154 28.4518 277.184 28.4518C275.15 28.4518 273.178 28.3735 271.268 28.217C269.39 28.0292 267.716 27.5753 266.245 26.8554C264.805 26.1355 263.631 25.0557 262.723 23.6159C261.847 22.1448 261.409 20.1259 261.409 17.5593C261.409 15.024 261.581 12.5044 261.925 10.0004C262.27 7.46506 262.708 4.96106 263.24 2.48835L273.146 2.58225C272.614 4.55416 272.145 6.55736 271.738 8.59187C271.331 10.6264 271.128 12.6765 271.128 14.7423C271.128 15.8378 271.206 16.7299 271.362 17.4185C271.519 18.1071 271.8 18.6705 272.207 19.1087C272.614 19.5156 273.178 19.7973 273.898 19.9538C274.617 20.1103 275.525 20.1885 276.621 20.1885C277.059 20.1885 277.591 20.1572 278.217 20.0946C278.874 20.032 279.532 19.9538 280.189 19.8599C280.877 19.7347 281.519 19.5782 282.114 19.3904C282.74 19.2026 283.225 18.9678 283.569 18.6861C283.694 18.5922 283.804 18.2792 283.898 17.7471C283.992 17.215 284.07 16.589 284.133 15.8691C284.195 15.1179 284.242 14.3198 284.274 13.4747C284.305 12.6296 284.32 11.8314 284.32 11.0802C284.352 10.329 284.367 9.68737 284.367 9.15527C284.367 8.59187 284.367 8.23191 284.367 8.07541C284.367 7.01121 284.367 5.96266 284.367 4.92976C284.367 3.86556 284.336 2.80136 284.274 1.73715C285.807 1.89365 287.31 2.0345 288.781 2.1597C290.283 2.2536 291.801 2.33185 293.335 2.39445C293.46 5.43056 293.585 8.43537 293.71 11.4089C293.867 14.3824 294.023 17.3872 294.18 20.4233C294.243 21.1745 294.274 21.9413 294.274 22.7238C294.274 23.475 294.274 24.2106 294.274 24.9305Z" fill="white"/>
<path d="M333.994 15.5874C333.994 15.8378 333.994 16.0882 333.994 16.3386C333.994 16.5577 333.978 16.7925 333.947 17.0429C333.915 17.4811 333.837 18.201 333.712 19.2026C333.587 20.2042 333.415 21.2527 333.196 22.3482C332.976 23.4124 332.71 24.3984 332.397 25.3061C332.084 26.2138 331.74 26.7928 331.364 27.0432C331.177 27.1684 330.535 27.278 329.44 27.3719C328.375 27.4658 327.061 27.5597 325.496 27.6536C323.962 27.7475 322.287 27.8258 320.472 27.8884C318.657 27.951 316.919 28.0136 315.261 28.0762C313.633 28.1075 312.193 28.1388 310.941 28.1701C309.72 28.2014 308.907 28.217 308.5 28.217C308.312 28.217 307.983 28.217 307.514 28.217C307.076 28.217 306.606 28.217 306.105 28.217C305.605 28.1857 305.135 28.1544 304.697 28.1231C304.259 28.0918 303.946 28.0449 303.758 27.9823C303.32 27.8258 302.881 27.5753 302.443 27.231C302.005 26.8554 301.598 26.4485 301.223 26.0103C300.847 25.5408 300.503 25.0713 300.19 24.6018C299.908 24.101 299.704 23.6315 299.579 23.1933C299.485 22.849 299.407 22.3326 299.345 21.644C299.282 20.9241 299.235 20.1885 299.204 19.4373C299.172 18.6548 299.141 17.9036 299.11 17.1837C299.11 16.4638 299.11 15.9161 299.11 15.5405C299.11 14.9458 299.125 14.132 299.157 13.0991C299.188 12.0349 299.282 10.955 299.438 9.85952C299.595 8.76402 299.814 7.74676 300.096 6.80776C300.409 5.83746 300.847 5.16451 301.41 4.78891C301.661 4.63241 302.13 4.49156 302.819 4.36636C303.507 4.24116 304.321 4.13161 305.26 4.03771C306.199 3.94381 307.201 3.88121 308.265 3.84991C309.329 3.78731 310.362 3.75601 311.364 3.75601C312.397 3.72471 313.351 3.70906 314.228 3.70906C315.104 3.70906 315.808 3.72471 316.34 3.75601C316.81 3.78731 317.483 3.81861 318.359 3.84991C319.236 3.84991 320.206 3.86556 321.27 3.89686C322.366 3.92816 323.492 3.99076 324.651 4.08466C325.809 4.14726 326.889 4.24116 327.89 4.36636C328.892 4.49156 329.768 4.66371 330.519 4.88281C331.302 5.07061 331.818 5.30536 332.069 5.58706C332.476 6.02526 332.804 6.68256 333.055 7.55896C333.305 8.43537 333.493 9.37437 333.618 10.376C333.775 11.3463 333.868 12.3166 333.9 13.2869C333.962 14.2259 333.994 14.9927 333.994 15.5874ZM324.04 16.5734C324.04 16.1978 324.025 15.7596 323.993 15.2588C323.962 14.758 323.915 14.2572 323.852 13.7564C323.79 13.2243 323.696 12.7235 323.571 12.254C323.446 11.7532 323.289 11.3463 323.101 11.0333C322.851 10.6264 322.366 10.3134 321.646 10.0943C320.926 9.87517 320.128 9.71867 319.251 9.62477C318.406 9.49957 317.561 9.42132 316.716 9.39002C315.902 9.35872 315.292 9.34307 314.885 9.34307C314.666 9.34307 314.275 9.35872 313.711 9.39002C313.148 9.39002 312.553 9.40567 311.927 9.43697C311.332 9.46827 310.769 9.53087 310.237 9.62477C309.705 9.68737 309.361 9.76562 309.204 9.85952C308.922 10.0473 308.703 10.3447 308.547 10.7516C308.39 11.1272 308.265 11.5497 308.171 12.0192C308.109 12.4887 308.062 12.9582 308.03 13.4277C308.03 13.8659 308.03 14.2259 308.03 14.5076C308.03 14.7893 308.046 15.3057 308.077 16.0569C308.14 16.7768 308.202 17.5593 308.265 18.4044C308.359 19.2182 308.468 19.9694 308.594 20.658C308.719 21.3466 308.875 21.7848 309.063 21.9726C309.282 22.223 309.689 22.4265 310.284 22.583C310.91 22.7395 311.567 22.8803 312.256 23.0055C312.976 23.0994 313.664 23.1777 314.322 23.2403C314.979 23.2716 315.448 23.2872 315.73 23.2872C316.231 23.2872 316.826 23.2716 317.514 23.2403C318.203 23.209 318.891 23.1307 319.58 23.0055C320.3 22.8803 320.973 22.7082 321.599 22.4891C322.225 22.27 322.726 21.9726 323.101 21.597C323.32 21.3779 323.492 21.0493 323.618 20.6111C323.743 20.1729 323.837 19.7034 323.899 19.2026C323.962 18.7018 323.993 18.2166 323.993 17.7471C324.025 17.2463 324.04 16.8551 324.04 16.5734Z" fill="white"/>
<path d="M370.521 31.7852L362.586 32.1139L362.023 27.3719C361.428 28.1857 360.708 28.8743 359.863 29.4377C359.049 30.0011 358.157 30.455 357.187 30.7993C356.248 31.1436 355.262 31.394 354.229 31.5505C353.228 31.6757 352.242 31.7383 351.271 31.7383C350.52 31.7383 349.581 31.6757 348.454 31.5505C347.359 31.4253 346.232 31.2531 345.074 31.034C343.947 30.7836 342.899 30.4706 341.928 30.095C340.958 29.7194 340.254 29.2812 339.815 28.7804C339.471 28.4048 339.205 27.8101 339.017 26.9963C338.861 26.1512 338.751 25.2591 338.689 24.3201C338.626 23.3811 338.595 22.4734 338.595 21.597C338.595 20.7206 338.595 20.0164 338.595 19.4843C338.595 17.1368 338.689 14.8206 338.876 12.5357C339.064 10.2508 339.33 7.98151 339.675 5.72791C340.551 5.63401 341.49 5.58706 342.492 5.58706C343.305 5.58706 344.119 5.64966 344.933 5.77486C345.747 5.86876 346.561 5.99396 347.374 6.15046C347.374 6.30696 347.39 6.76081 347.421 7.51201C347.453 8.26321 347.484 9.15527 347.515 10.1882C347.578 11.2211 347.64 12.3322 347.703 13.5216C347.766 14.6797 347.828 15.7596 347.891 16.7612C347.985 17.7628 348.079 18.6235 348.173 19.3434C348.298 20.032 348.423 20.4076 348.548 20.4702C349.018 20.7519 349.534 20.9084 350.098 20.9397C350.661 20.971 351.209 20.9867 351.741 20.9867C352.116 20.9867 352.695 20.971 353.478 20.9397C354.292 20.8771 355.121 20.7989 355.966 20.705C356.811 20.5798 357.594 20.4389 358.314 20.2824C359.034 20.0946 359.519 19.8755 359.769 19.6251C359.863 19.5312 359.926 19.2339 359.957 18.7331C360.02 18.2323 360.051 17.6845 360.051 17.0898C360.082 16.4951 360.098 15.9474 360.098 15.4466C360.129 14.9145 360.145 14.6015 360.145 14.5076C360.145 13.0991 360.114 11.7062 360.051 10.329C359.988 8.95182 359.926 7.55896 359.863 6.15046L368.971 5.72791C369.159 7.91891 369.331 10.1099 369.488 12.3009C369.644 14.4606 369.848 16.636 370.098 18.827C370.192 19.5469 370.239 20.2824 370.239 21.0336C370.27 21.7848 370.302 22.536 370.333 23.2872C370.396 24.6957 370.427 26.1042 370.427 27.5127C370.458 28.9213 370.49 30.3454 370.521 31.7852Z" fill="white"/>
<path d="M402.776 14.3667V15.4466L393.714 15.8691C393.808 15.4622 393.855 14.9927 393.855 14.4606C393.855 13.6781 393.745 13.1773 393.526 12.9582C393.307 12.7078 392.822 12.5826 392.071 12.5826C391.007 12.5826 389.833 12.7704 388.55 13.146C387.266 13.5216 386.14 13.8816 385.169 14.2259C385.013 15.6031 384.888 16.9803 384.794 18.3575C384.7 19.7347 384.653 21.1119 384.653 22.4891C384.653 24.0228 384.653 25.5565 384.653 27.0902C384.684 28.5926 384.715 30.1107 384.747 31.6444L376.671 32.1608C376.515 30.1576 376.358 28.1701 376.202 26.1981C376.045 24.1949 375.904 22.1917 375.779 20.1885C375.623 17.528 375.419 14.8832 375.169 12.254C374.918 9.59347 374.668 6.91731 374.418 4.22551C376.202 4.35071 377.97 4.53851 379.723 4.78891C381.507 5.00801 383.291 5.28971 385.075 5.63401L384.841 9.57782C385.78 8.82662 386.672 8.18496 387.517 7.65286C388.393 7.08946 389.27 6.61996 390.146 6.24436C391.054 5.86876 392.008 5.60271 393.01 5.44621C394.012 5.25841 395.123 5.16451 396.343 5.16451C397.157 5.16451 398.002 5.25841 398.879 5.44621C399.755 5.60271 400.506 5.99396 401.132 6.61996C401.445 6.96426 401.711 7.48071 401.93 8.16931C402.15 8.85792 402.322 9.59347 402.447 10.376C402.572 11.1272 402.65 11.8784 402.682 12.6296C402.744 13.3495 402.776 13.9285 402.776 14.3667Z" fill="white"/>
<path d="M38.0908 56.3513C38.0908 58.9179 37.3083 60.9367 35.7433 62.4078C34.1782 63.8789 32.1124 64.6771 29.5458 64.8023C32.6445 69.9668 35.352 75.2565 37.6682 80.6714L23.9588 81.0001C23.7084 78.4648 23.3328 76.1329 22.832 74.0045C22.3312 71.8761 21.6269 69.6382 20.7192 67.2906C19.6863 67.3532 18.6534 67.4315 17.6205 67.5254C16.6189 67.6193 15.6173 67.6976 14.6157 67.7602L14.8505 78.4178C13.0664 78.5117 11.2823 78.5587 9.49816 78.5587C8.59045 78.5587 7.6984 78.543 6.822 78.5117C5.9769 78.4804 5.11615 78.4178 4.23975 78.3239C4.45885 75.4443 4.6623 72.5804 4.8501 69.7321C5.0379 66.8524 5.14745 63.9885 5.17875 61.1402C5.27265 56.0696 5.4135 50.999 5.6013 45.9284C8.5435 45.7719 11.4701 45.5997 14.381 45.4119C17.3232 45.2241 20.2654 45.1302 23.2076 45.1302C23.9588 45.1302 24.7726 45.1459 25.649 45.1772C26.5254 45.2085 27.4018 45.3024 28.2782 45.4589C29.1859 45.5841 30.0466 45.7719 30.8604 46.0223C31.7055 46.2727 32.4567 46.6013 33.114 47.0082C34.7104 48.0098 35.9311 49.3557 36.7762 51.0459C37.6526 52.7048 38.0908 54.4733 38.0908 56.3513ZM27.1983 55.6001C27.1983 55.3497 27.1827 55.0054 27.1514 54.5672C27.1514 54.129 27.1201 53.6908 27.0575 53.2526C26.9949 52.7831 26.901 52.3605 26.7758 51.9849C26.6506 51.578 26.4784 51.2807 26.2593 51.0929C26.1028 50.9677 25.8368 50.8738 25.4612 50.8112C25.0856 50.7486 24.6787 50.7016 24.2405 50.6703C23.8336 50.6077 23.4267 50.5764 23.0198 50.5764C22.6442 50.5451 22.3781 50.5295 22.2216 50.5295C20.9696 50.5295 19.7333 50.5921 18.5126 50.7173C17.3232 50.8425 16.1338 50.999 14.9444 51.1868L16.212 60.2951C16.9006 60.4516 17.6205 60.5611 18.3717 60.6237C19.1229 60.6863 19.8585 60.7176 20.5784 60.7176C20.8914 60.7176 21.3452 60.702 21.9399 60.6707C22.5659 60.6394 23.1919 60.5768 23.8179 60.4829C24.4752 60.389 25.0699 60.2638 25.602 60.1073C26.1654 59.9195 26.5567 59.6847 26.7758 59.403C26.8697 59.2778 26.9479 59.0431 27.0105 58.6988C27.0731 58.3232 27.1044 57.9476 27.1044 57.572C27.1357 57.1651 27.1514 56.7738 27.1514 56.3982C27.1827 56.0226 27.1983 55.7566 27.1983 55.6001Z" fill="white"/>
<path d="M70.1107 51.3746C67.0433 51.5311 63.9916 51.7032 60.9554 51.891C57.9506 52.0475 54.9145 52.251 51.8471 52.5014L51.7532 56.2104L63.8664 55.5062C64.0229 56.5704 64.1324 57.6189 64.195 58.6518C64.2889 59.6847 64.3359 60.7333 64.3359 61.7975C64.3359 62.2357 64.3202 62.6895 64.2889 63.159C64.2889 63.6285 64.2889 64.0824 64.2889 64.5206L53.0209 66.5394L53.7251 72.3613C56.1039 72.2048 58.4671 71.9857 60.8146 71.704C63.1934 71.391 65.5879 71.1249 67.998 70.9058C68.2171 72.4708 68.4362 74.0515 68.6553 75.6478C68.8744 77.2128 69.1874 78.7465 69.5943 80.2489C65.1497 80.2176 60.7363 80.2176 56.3543 80.2489C51.9723 80.3115 47.559 80.3428 43.1144 80.3428C43.2083 76.6807 43.3179 73.0342 43.4431 69.4034C43.5683 65.7726 43.6309 62.1105 43.6309 58.4171V57.525C43.6309 55.3966 43.5996 53.2839 43.537 51.1868C43.4744 49.0584 43.4118 46.9143 43.3492 44.7546C45.8219 44.7859 48.2789 44.8016 50.7203 44.8016C53.193 44.7703 55.6814 44.7546 58.1854 44.7546C60.0947 44.7546 61.9883 44.8016 63.8664 44.8955C65.7757 44.9581 67.685 45.0363 69.5943 45.1302L70.1107 51.3746Z" fill="white"/>
<path d="M104.995 79.8263L97.8582 80.9062C97.3574 79.3099 96.8566 77.7292 96.3558 76.1642C95.855 74.5679 95.3699 72.9716 94.9004 71.3753L83.3506 71.7979L81.8952 78.0422H74.6649C75.1031 72.7212 75.5569 67.4315 76.0264 62.1731C76.4959 56.9147 76.9498 51.6406 77.388 46.3509C79.6416 45.9753 81.8795 45.6623 84.1018 45.4119C86.3554 45.1615 88.6247 45.0363 90.9096 45.0363C93.6953 45.0363 96.481 45.0833 99.2667 45.1772C99.7675 48.4324 100.253 51.6876 100.722 54.9428C101.223 58.1667 101.739 61.4062 102.272 64.6614C102.647 67.228 103.054 69.7634 103.492 72.2674C103.962 74.7714 104.463 77.291 104.995 79.8263ZM93.2571 64.9901C93.2258 64.7084 93.1476 64.1919 93.0224 63.4407C92.8972 62.6582 92.7563 61.8444 92.5998 60.9993C92.4433 60.1229 92.2555 59.3404 92.0364 58.6518C91.8486 57.9319 91.6608 57.5094 91.473 57.3842C91.4104 57.3529 91.2539 57.3216 91.0035 57.2903C90.7844 57.259 90.534 57.2277 90.2523 57.1964C90.0019 57.1651 89.7515 57.1494 89.5011 57.1494C89.2507 57.1494 89.0785 57.1494 88.9846 57.1494C88.8281 57.1494 88.609 57.1494 88.3273 57.1494C88.0769 57.1494 87.7952 57.1651 87.4822 57.1964C87.2005 57.1964 86.9188 57.2277 86.6371 57.2903C86.3867 57.3529 86.2146 57.4311 86.1207 57.525C86.0581 57.5563 85.9798 57.7598 85.8859 58.1354C85.792 58.511 85.6668 58.9805 85.5103 59.5439C85.3851 60.076 85.2443 60.655 85.0878 61.281C84.9626 61.907 84.8374 62.5017 84.7122 63.0651C84.587 63.6285 84.4774 64.1137 84.3835 64.5206C84.3209 64.9275 84.274 65.1622 84.2427 65.2248L93.2571 64.9901Z" fill="white"/>
<path d="M143.447 63.1121C143.447 64.0198 143.447 64.9744 143.447 65.976C143.447 66.9776 143.337 67.9323 143.118 68.84C142.962 69.5286 142.789 70.139 142.602 70.6711C142.414 71.1719 142.179 71.6414 141.897 72.0796C141.616 72.4865 141.271 72.8777 140.864 73.2533C140.458 73.5976 139.957 73.9419 139.362 74.2862C139.174 74.4114 138.673 74.5836 137.86 74.8027C137.046 74.9905 136.029 75.2252 134.808 75.5069C133.619 75.7886 132.273 76.086 130.77 76.399C129.299 76.712 127.781 77.025 126.216 77.338C124.682 77.6197 123.149 77.917 121.615 78.23C120.113 78.5117 118.735 78.7778 117.483 79.0282C116.263 79.2473 115.214 79.4507 114.338 79.6385C113.493 79.795 112.929 79.8889 112.647 79.9202C112.115 74.1923 111.615 68.5114 111.145 62.8773C110.676 57.2433 110.316 51.5467 110.065 45.7875C112.694 45.8814 115.308 45.991 117.906 46.1162C120.504 46.2101 123.133 46.3509 125.794 46.5387C126.482 46.6013 127.484 46.6796 128.798 46.7735C130.144 46.8674 131.537 47.0082 132.977 47.196C134.417 47.3525 135.763 47.556 137.015 47.8064C138.298 48.0568 139.221 48.3698 139.785 48.7454C140.505 49.2775 141.146 49.9974 141.71 50.9051C142.273 51.8128 142.68 52.7048 142.93 53.5812C143.055 53.9881 143.149 54.6298 143.212 55.5062C143.275 56.3513 143.322 57.259 143.353 58.2293C143.384 59.1996 143.4 60.1386 143.4 61.0463C143.431 61.954 143.447 62.6426 143.447 63.1121ZM131.756 63.7224C131.756 63.3781 131.741 63.0182 131.709 62.6426C131.709 62.2357 131.694 61.8601 131.662 61.5158C131.6 61.015 131.506 60.4985 131.381 59.9664C131.287 59.403 131.146 58.8709 130.958 58.3701C130.77 57.838 130.535 57.3529 130.254 56.9147C129.972 56.4452 129.628 56.0383 129.221 55.694C129.002 55.5062 128.47 55.3653 127.625 55.2714C126.779 55.1462 125.856 55.068 124.855 55.0367C123.853 54.9741 122.914 54.9428 122.038 54.9428C121.161 54.9115 120.598 54.8958 120.347 54.8958H118.422C118.673 57.3372 118.892 59.7473 119.08 62.1261C119.299 64.4736 119.487 66.8681 119.643 69.3095C120.238 69.2782 121.083 69.2 122.178 69.0748C123.305 68.9183 124.448 68.7305 125.606 68.5114C126.764 68.261 127.844 67.9636 128.845 67.6193C129.847 67.2437 130.567 66.8055 131.005 66.3047C131.349 65.9291 131.553 65.5378 131.615 65.1309C131.709 64.6927 131.756 64.2232 131.756 63.7224Z" fill="white"/>
<path d="M189.364 80.7653C188.769 80.734 188.19 80.6871 187.627 80.6245C187.157 80.5619 186.688 80.5149 186.218 80.4836C185.78 80.4523 185.451 80.4367 185.232 80.4367C184.012 80.4367 182.791 80.4523 181.57 80.4836C180.35 80.5462 179.144 80.6401 177.955 80.7653C177.986 79.4507 178.002 78.1674 178.002 76.9154C178.033 75.6321 178.049 74.3332 178.049 73.0186C178.049 70.6711 178.002 68.3392 177.908 66.023C177.846 63.7068 177.783 61.3906 177.72 59.0744L167.861 81.3757C166.421 77.4632 164.872 73.6289 163.213 69.8729C161.585 66.0856 159.879 62.3139 158.095 58.5579L158.846 81.7513C158.502 81.7513 158.142 81.7356 157.767 81.7043C157.422 81.7043 157.062 81.7043 156.687 81.7043C155.497 81.7043 154.324 81.7513 153.165 81.8452C152.039 81.9391 150.896 82.033 149.738 82.1269C149.895 79.216 150.051 76.3207 150.208 73.4411C150.364 70.5615 150.442 67.6663 150.442 64.7553C150.442 61.3436 150.411 57.9476 150.348 54.5672C150.317 51.1868 150.286 47.7907 150.255 44.379C152.508 44.379 154.699 44.3164 156.828 44.1912C158.987 44.066 161.194 43.8939 163.447 43.6748C164.199 46.1788 164.966 48.6671 165.748 51.1398C166.562 53.5812 167.423 56.0226 168.33 58.464C169.301 56.1478 170.396 53.8786 171.617 51.6563C172.869 49.434 174.136 47.2273 175.42 45.0363C177.548 44.9737 179.645 44.9111 181.711 44.8485C183.808 44.7859 185.921 44.739 188.049 44.7077C188.143 47.5247 188.253 50.3104 188.378 53.0648C188.534 55.8192 188.675 58.6049 188.801 61.4219C188.894 63.6442 188.973 65.8665 189.035 68.0888C189.129 70.3111 189.207 72.5178 189.27 74.7088L189.364 78.6526V80.7653Z" fill="white"/>
<path d="M222.839 51.3746C219.772 51.5311 216.72 51.7032 213.684 51.891C210.679 52.0475 207.643 52.251 204.576 52.5014L204.482 56.2104L216.595 55.5062C216.751 56.5704 216.861 57.6189 216.924 58.6518C217.018 59.6847 217.064 60.7333 217.064 61.7975C217.064 62.2357 217.049 62.6895 217.018 63.159C217.018 63.6285 217.018 64.0824 217.018 64.5206L205.75 66.5394L206.454 72.3613C208.833 72.2048 211.196 71.9857 213.543 71.704C215.922 71.391 218.316 71.1249 220.727 70.9058C220.946 72.4708 221.165 74.0515 221.384 75.6478C221.603 77.2128 221.916 78.7465 222.323 80.2489C217.878 80.2176 213.465 80.2176 209.083 80.2489C204.701 80.3115 200.288 80.3428 195.843 80.3428C195.937 76.6807 196.046 73.0342 196.172 69.4034C196.297 65.7726 196.359 62.1105 196.359 58.4171V57.525C196.359 55.3966 196.328 53.2839 196.266 51.1868C196.203 49.0584 196.14 46.9143 196.078 44.7546C198.55 44.7859 201.008 44.8016 203.449 44.8016C205.922 44.7703 208.41 44.7546 210.914 44.7546C212.823 44.7546 214.717 44.8016 216.595 44.8955C218.504 44.9581 220.414 45.0363 222.323 45.1302L222.839 51.3746Z" fill="white"/>
<path d="M277.067 61.6566C277.067 62.8147 276.988 63.9885 276.832 65.1779C276.707 66.336 276.566 67.4941 276.409 68.6522C276.159 70.6867 275.877 72.7056 275.564 74.7088C275.251 76.6807 274.938 78.6839 274.625 80.7184C273.092 80.7497 271.589 80.8123 270.118 80.9062C268.647 81.0001 267.16 81.1096 265.658 81.2348C265.658 78.9499 265.658 76.6963 265.658 74.474C265.658 72.2204 265.611 69.9668 265.517 67.7132C265.517 67.275 265.501 66.7116 265.47 66.023C265.47 65.3344 265.407 64.771 265.282 64.3328C265.094 63.6129 264.86 63.1277 264.578 62.8773C264.296 62.5956 263.749 62.4548 262.935 62.4548C262.371 62.4548 261.714 62.5174 260.963 62.6426C260.212 62.7678 259.445 62.9243 258.662 63.1121C257.88 63.2999 257.129 63.519 256.409 63.7694C255.72 63.9885 255.141 64.2232 254.671 64.4736C254.421 67.0089 254.108 69.5286 253.732 72.0326C253.388 74.5366 253.169 77.0719 253.075 79.6385L246.455 79.3099C246.111 73.6759 245.782 68.0732 245.469 62.5017C245.156 56.899 244.859 51.2807 244.577 45.6467L254.906 44.9894C254.844 47.0552 254.781 49.121 254.718 51.1868C254.656 53.2213 254.593 55.2714 254.531 57.3372C255.125 56.8364 255.798 56.4608 256.549 56.2104C257.301 55.9287 258.068 55.7409 258.85 55.647C259.664 55.5531 260.478 55.5062 261.291 55.5062C262.105 55.5062 262.888 55.5062 263.639 55.5062C264.766 55.5062 266.033 55.5531 267.442 55.647C268.882 55.7096 270.243 55.9287 271.527 56.3043C272.841 56.6486 273.999 57.212 275.001 57.9945C276.002 58.777 276.675 59.8725 277.02 61.281C277.051 61.3436 277.067 61.4062 277.067 61.4688C277.067 61.5314 277.067 61.594 277.067 61.6566Z" fill="white"/>
<path d="M314.439 58.7927C314.439 61.4219 314.345 64.0354 314.157 66.6333C313.969 69.2313 313.782 71.8292 313.594 74.4271C310.088 74.7401 306.598 75.0061 303.124 75.2252C299.65 75.4443 296.16 75.5539 292.654 75.5539C292.341 75.5539 291.762 75.5539 290.917 75.5539C290.072 75.5226 289.18 75.4913 288.241 75.46C287.302 75.3974 286.41 75.3348 285.565 75.2722C284.72 75.1783 284.156 75.0531 283.874 74.8966C282.842 74.3332 282.122 73.6289 281.715 72.7838C281.308 71.9074 281.104 70.9215 281.104 69.826C281.104 69.4504 281.12 68.9496 281.151 68.3236C281.183 67.6976 281.245 67.0402 281.339 66.3516C281.433 65.663 281.558 65.0214 281.715 64.4267C281.871 63.832 282.059 63.3938 282.278 63.1121C282.56 62.7365 283.201 62.4235 284.203 62.1731C285.205 61.8914 286.394 61.6723 287.771 61.5158C289.18 61.3593 290.682 61.2341 292.279 61.1402C293.906 61.0463 295.455 60.9837 296.927 60.9524C298.398 60.8898 299.712 60.8585 300.87 60.8585C302.028 60.8585 302.858 60.8585 303.359 60.8585C303.453 60.1699 303.5 59.4969 303.5 58.8396C303.5 58.777 303.5 58.6205 303.5 58.3701C303.5 58.0884 303.484 57.9163 303.453 57.8537C303.359 57.6659 303.061 57.5094 302.561 57.3842C302.06 57.259 301.434 57.1651 300.683 57.1025C299.963 57.0399 299.165 56.9929 298.288 56.9616C297.443 56.899 296.614 56.8677 295.8 56.8677C294.986 56.8677 294.266 56.8677 293.64 56.8677C293.014 56.8677 292.56 56.8677 292.279 56.8677C290.307 56.8677 288.335 56.9147 286.363 57.0086C284.391 57.0712 282.419 57.1338 280.447 57.1964C280.572 56.007 280.666 54.8019 280.729 53.5812C280.823 52.3605 280.838 51.1555 280.776 49.9661C283.061 49.5592 285.346 49.2775 287.63 49.121C289.947 48.9332 292.279 48.8393 294.626 48.8393C295.471 48.8393 296.394 48.8549 297.396 48.8862C298.398 48.8862 299.399 48.9175 300.401 48.9801C301.402 49.0114 302.388 49.074 303.359 49.1679C304.36 49.2618 305.284 49.387 306.129 49.5435C307.005 49.7 307.866 49.9817 308.711 50.3886C309.587 50.7955 310.401 51.2963 311.152 51.891C311.904 52.4857 312.561 53.1743 313.124 53.9568C313.688 54.708 314.095 55.5218 314.345 56.3982C314.376 56.4921 314.392 56.6486 314.392 56.8677C314.423 57.0868 314.439 57.3372 314.439 57.6189C314.439 57.8693 314.439 58.1041 314.439 58.3232C314.439 58.5423 314.439 58.6988 314.439 58.7927ZM303.969 69.826V63.8163C303.061 63.785 302.154 63.7694 301.246 63.7694C300.338 63.7381 299.431 63.7224 298.523 63.7224C298.335 63.7224 297.803 63.7381 296.927 63.7694C296.081 63.7694 295.158 63.8007 294.157 63.8633C293.186 63.9259 292.294 64.0041 291.48 64.098C290.667 64.1919 290.197 64.3328 290.072 64.5206C289.915 64.771 289.806 65.037 289.743 65.3187C289.712 65.5691 289.696 65.8352 289.696 66.1169C289.696 66.336 289.712 66.6333 289.743 67.0089C289.775 67.3845 289.821 67.7758 289.884 68.1827C289.978 68.5896 290.072 68.9652 290.166 69.3095C290.26 69.6538 290.385 69.9042 290.541 70.0607C290.667 70.2172 290.87 70.3424 291.152 70.4363C291.465 70.4989 291.793 70.5615 292.138 70.6241C292.482 70.6554 292.826 70.6867 293.171 70.718C293.515 70.718 293.781 70.718 293.969 70.718C294.72 70.718 295.518 70.6867 296.363 70.6241C297.24 70.5615 298.116 70.4989 298.992 70.4363C299.9 70.3424 300.776 70.2485 301.622 70.1546C302.467 70.0294 303.249 69.9199 303.969 69.826Z" fill="white"/>
<path d="M348.337 53.4873C347.179 55.647 346.036 57.7441 344.91 59.7786C343.783 61.7818 342.625 63.7694 341.435 65.7413C340.277 67.6819 339.072 69.6225 337.82 71.5631C336.568 73.5037 335.238 75.4756 333.829 77.4788L325.66 77.8075L316.364 53.2526L326.787 52.9709C327.413 55.8818 328.008 58.7927 328.571 61.7036C329.166 64.5832 329.776 67.4941 330.402 70.4363C331.591 67.6819 332.734 64.9431 333.829 62.22C334.956 59.4969 335.973 56.6956 336.881 53.816C338.822 53.816 340.731 53.8003 342.609 53.769C344.487 53.7377 346.396 53.6438 348.337 53.4873Z" fill="white"/>
<path d="M381.906 62.5487C377.806 62.7678 373.721 62.9556 369.652 63.1121C365.583 63.2373 361.499 63.3781 357.398 63.5346C357.367 63.6598 357.351 63.785 357.351 63.9102C357.351 64.0354 357.351 64.1606 357.351 64.2858C357.351 65.35 357.586 66.1638 358.056 66.7272C358.556 67.2906 359.167 67.6976 359.887 67.948C360.607 68.1671 361.405 68.2923 362.281 68.3236C363.157 68.3549 363.971 68.3705 364.722 68.3705C366.82 68.3705 368.917 68.3079 371.014 68.1827C373.111 68.0262 375.224 67.8697 377.352 67.7132L377.728 75.1783C375.662 75.2722 373.596 75.3504 371.53 75.413C369.496 75.4756 367.446 75.5069 365.38 75.5069C364.942 75.5069 364.128 75.5069 362.938 75.5069C361.78 75.4756 360.528 75.4287 359.182 75.3661C357.868 75.2722 356.631 75.1626 355.473 75.0374C354.315 74.9122 353.548 74.7401 353.173 74.521C352.202 73.9576 351.436 73.2377 350.872 72.3613C350.34 71.4849 349.918 70.5302 349.605 69.4973C349.323 68.4644 349.119 67.4158 348.994 66.3516C348.9 65.2561 348.838 64.2076 348.806 63.206C348.775 63.0495 348.759 62.893 348.759 62.7365C348.791 62.5487 348.806 62.3765 348.806 62.22C348.806 60.5611 348.979 59.0274 349.323 57.6189C349.698 56.1791 350.371 54.7863 351.342 53.4404C351.999 52.5014 352.969 51.7189 354.253 51.0929C355.536 50.4669 356.929 49.9817 358.431 49.6374C359.934 49.2618 361.436 49.0114 362.938 48.8862C364.441 48.7297 365.74 48.6515 366.835 48.6515C367.806 48.6515 368.995 48.7454 370.403 48.9332C371.812 49.0897 373.205 49.3714 374.582 49.7783C375.991 50.1852 377.258 50.7173 378.385 51.3746C379.512 52.0006 380.279 52.7831 380.686 53.7221C380.748 53.9099 380.811 54.2385 380.873 54.708C380.967 55.1462 381.061 55.6627 381.155 56.2574C381.249 56.8208 381.327 57.4311 381.39 58.0884C381.484 58.7457 381.562 59.3717 381.625 59.9664C381.687 60.5611 381.734 61.0932 381.765 61.5627C381.828 62.0322 381.875 62.3609 381.906 62.5487ZM375.521 59.1213C375.333 57.7441 374.973 56.6643 374.441 55.8818C373.94 55.068 373.299 54.4733 372.516 54.0977C371.765 53.6908 370.889 53.4404 369.887 53.3465C368.917 53.2213 367.868 53.1587 366.741 53.1587C366.366 53.1587 365.896 53.1743 365.333 53.2056C364.769 53.2056 364.206 53.2526 363.643 53.3465C363.079 53.4091 362.547 53.5186 362.046 53.6751C361.546 53.8316 361.154 54.0507 360.873 54.3324C360.653 54.5202 360.466 54.7863 360.309 55.1306C360.184 55.4436 360.074 55.7879 359.981 56.1635C359.887 56.5391 359.808 56.9147 359.746 57.2903C359.714 57.6346 359.699 57.9319 359.699 58.1823C359.699 58.6831 359.746 59.1683 359.84 59.6378L375.521 59.1213Z" fill="white"/>
<path d="M427.73 71.657L426.931 79.9202C425.93 79.9828 424.928 80.0298 423.927 80.0611C422.925 80.1237 421.923 80.155 420.922 80.155C420.39 80.155 419.685 80.1393 418.809 80.108C417.933 80.0767 417.025 80.0298 416.086 79.9672C415.147 79.8733 414.255 79.7637 413.41 79.6385C412.565 79.482 411.892 79.2942 411.391 79.0751C410.64 78.7308 410.014 78.277 409.513 77.7136C409.043 77.1502 408.652 76.5398 408.339 75.8825C408.026 75.1939 407.776 74.474 407.588 73.7228C407.4 72.9403 407.259 72.1735 407.165 71.4223C407.071 70.7024 406.993 69.9355 406.931 69.1217C406.899 68.2766 406.868 67.4158 406.837 66.5394C406.837 65.663 406.837 64.8179 406.837 64.0041C406.837 63.159 406.837 62.3765 406.837 61.6566V60.2481H403.926C404.051 58.8396 404.114 57.4468 404.114 56.0696C404.145 54.6924 404.223 53.2995 404.348 51.891L407.165 51.9849V45.0363C408.949 45.3806 410.718 45.5684 412.471 45.5997C414.255 45.5997 416.039 45.6623 417.823 45.7875L417.729 52.9709L421.673 53.2056C421.673 53.4247 421.673 53.6282 421.673 53.816C421.704 54.0038 421.72 54.2072 421.72 54.4263C421.72 55.3027 421.642 56.1635 421.485 57.0086C421.36 57.8224 421.188 58.6518 420.969 59.4969H417.541C417.479 60.9367 417.432 62.3765 417.4 63.8163C417.369 65.2561 417.354 66.6959 417.354 68.1358C417.354 68.8244 417.369 69.4504 417.4 70.0138C417.463 70.5459 417.588 70.9997 417.776 71.3753C417.995 71.7509 418.339 72.0326 418.809 72.2204C419.278 72.4082 419.936 72.5021 420.781 72.5021C421.939 72.5021 423.097 72.4239 424.255 72.2674C425.413 72.1109 426.571 71.9074 427.73 71.657Z" fill="white"/>
<path d="M459.515 61.6566C459.515 62.8147 459.436 63.9885 459.28 65.1779C459.155 66.336 459.014 67.4941 458.857 68.6522C458.607 70.6867 458.325 72.7056 458.012 74.7088C457.699 76.6807 457.386 78.6839 457.073 80.7184C455.54 80.7497 454.037 80.8123 452.566 80.9062C451.095 81.0001 449.608 81.1096 448.106 81.2348C448.106 78.9499 448.106 76.6963 448.106 74.474C448.106 72.2204 448.059 69.9668 447.965 67.7132C447.965 67.275 447.949 66.7116 447.918 66.023C447.918 65.3344 447.855 64.771 447.73 64.3328C447.542 63.6129 447.308 63.1277 447.026 62.8773C446.744 62.5956 446.197 62.4548 445.383 62.4548C444.819 62.4548 444.162 62.5174 443.411 62.6426C442.66 62.7678 441.893 62.9243 441.11 63.1121C440.328 63.2999 439.577 63.519 438.857 63.7694C438.168 63.9885 437.589 64.2232 437.12 64.4736C436.869 67.0089 436.556 69.5286 436.181 72.0326C435.836 74.5366 435.617 77.0719 435.523 79.6385L428.903 79.3099C428.559 73.6759 428.23 68.0732 427.917 62.5017C427.604 56.899 427.307 51.2807 427.025 45.6467L437.354 44.9894C437.292 47.0552 437.229 49.121 437.166 51.1868C437.104 53.2213 437.041 55.2714 436.979 57.3372C437.573 56.8364 438.246 56.4608 438.998 56.2104C439.749 55.9287 440.516 55.7409 441.298 55.647C442.112 55.5531 442.926 55.5062 443.739 55.5062C444.553 55.5062 445.336 55.5062 446.087 55.5062C447.214 55.5062 448.481 55.5531 449.89 55.647C451.33 55.7096 452.691 55.9287 453.975 56.3043C455.289 56.6486 456.447 57.212 457.449 57.9945C458.451 58.777 459.123 59.8725 459.468 61.281C459.499 61.3436 459.515 61.4062 459.515 61.4688C459.515 61.5314 459.515 61.594 459.515 61.6566Z" fill="white"/>
<path d="M495.76 62.5487C491.66 62.7678 487.575 62.9556 483.506 63.1121C479.437 63.2373 475.353 63.3781 471.252 63.5346C471.221 63.6598 471.205 63.785 471.205 63.9102C471.205 64.0354 471.205 64.1606 471.205 64.2858C471.205 65.35 471.44 66.1638 471.91 66.7272C472.41 67.2906 473.021 67.6976 473.741 67.948C474.46 68.1671 475.259 68.2923 476.135 68.3236C477.011 68.3549 477.825 68.3705 478.576 68.3705C480.674 68.3705 482.771 68.3079 484.868 68.1827C486.965 68.0262 489.078 67.8697 491.206 67.7132L491.582 75.1783C489.516 75.2722 487.45 75.3504 485.384 75.413C483.35 75.4756 481.3 75.5069 479.234 75.5069C478.796 75.5069 477.982 75.5069 476.792 75.5069C475.634 75.4756 474.382 75.4287 473.036 75.3661C471.722 75.2722 470.485 75.1626 469.327 75.0374C468.169 74.9122 467.402 74.7401 467.027 74.521C466.056 73.9576 465.29 73.2377 464.726 72.3613C464.194 71.4849 463.772 70.5302 463.459 69.4973C463.177 68.4644 462.973 67.4158 462.848 66.3516C462.754 65.2561 462.692 64.2076 462.66 63.206C462.629 63.0495 462.613 62.893 462.613 62.7365C462.645 62.5487 462.66 62.3765 462.66 62.22C462.66 60.5611 462.833 59.0274 463.177 57.6189C463.552 56.1791 464.225 54.7863 465.196 53.4404C465.853 52.5014 466.823 51.7189 468.107 51.0929C469.39 50.4669 470.783 49.9817 472.285 49.6374C473.788 49.2618 475.29 49.0114 476.792 48.8862C478.295 48.7297 479.594 48.6515 480.689 48.6515C481.66 48.6515 482.849 48.7454 484.257 48.9332C485.666 49.0897 487.059 49.3714 488.436 49.7783C489.844 50.1852 491.112 50.7173 492.239 51.3746C493.366 52.0006 494.133 52.7831 494.539 53.7221C494.602 53.9099 494.665 54.2385 494.727 54.708C494.821 55.1462 494.915 55.6627 495.009 56.2574C495.103 56.8208 495.181 57.4311 495.244 58.0884C495.338 58.7457 495.416 59.3717 495.478 59.9664C495.541 60.5611 495.588 61.0932 495.619 61.5627C495.682 62.0322 495.729 62.3609 495.76 62.5487ZM489.375 59.1213C489.187 57.7441 488.827 56.6643 488.295 55.8818C487.794 55.068 487.153 54.4733 486.37 54.0977C485.619 53.6908 484.743 53.4404 483.741 53.3465C482.771 53.2213 481.722 53.1587 480.595 53.1587C480.22 53.1587 479.75 53.1743 479.187 53.2056C478.623 53.2056 478.06 53.2526 477.497 53.3465C476.933 53.4091 476.401 53.5186 475.9 53.6751C475.399 53.8316 475.008 54.0507 474.727 54.3324C474.507 54.5202 474.32 54.7863 474.163 55.1306C474.038 55.4436 473.928 55.7879 473.834 56.1635C473.741 56.5391 473.662 56.9147 473.6 57.2903C473.568 57.6346 473.553 57.9319 473.553 58.1823C473.553 58.6831 473.6 59.1683 473.694 59.6378L489.375 59.1213Z" fill="white"/>
<path d="M117.529 194.941C117.529 199.842 116.348 203.824 113.986 206.887C111.625 209.848 108.287 212.248 103.974 214.085C100.38 215.617 95.8616 216.842 90.419 217.761C84.9764 218.578 79.3284 219.191 73.4751 219.599C67.6217 219.905 61.871 220.11 56.223 220.212C50.5751 220.314 45.8513 220.365 42.0518 220.365C35.5823 220.365 29.1641 220.263 22.7973 220.059C16.5332 219.854 10.1664 219.548 3.69686 219.14C4.00493 208.725 3.69686 198.412 2.77264 188.202C10.4744 188.406 18.1249 188.61 25.724 188.814C33.4258 188.916 41.1275 189.07 48.8293 189.274C51.8074 189.376 54.7854 189.478 57.7634 189.58C60.8441 189.682 63.9248 189.733 67.0056 189.733C67.519 189.733 68.2892 189.733 69.3161 189.733C70.343 189.733 71.4212 189.682 72.5508 189.58C73.6804 189.478 74.7073 189.325 75.6316 189.121C76.6585 188.916 77.4286 188.61 77.9421 188.202C78.3529 187.793 78.6096 187.232 78.7123 186.517C78.815 185.7 78.8663 184.985 78.8663 184.373C78.8663 183.25 78.7123 181.922 78.4042 180.391C78.0961 178.757 77.634 177.43 77.0179 176.408C76.9152 176.306 76.5558 176.204 75.9396 176.102C75.4262 176 74.81 175.949 74.0912 175.949C73.3724 175.847 72.7049 175.796 72.0887 175.796C71.4726 175.694 71.1132 175.643 71.0105 175.643C64.4383 175.132 57.8661 174.775 51.2939 174.571C44.8244 174.366 38.3036 174.009 31.7314 173.498C28.7533 173.192 25.6726 172.886 22.4892 172.58C19.4085 172.273 16.5332 171.712 13.8632 170.895C11.296 170.18 9.08811 168.597 7.23968 166.147C5.49394 163.594 4.05627 160.735 2.92668 157.57C1.89977 154.303 1.1296 151.035 0.616143 147.768C0.205381 144.5 0 141.744 0 139.497C0 135.821 0.359417 132.35 1.07825 129.083C1.79708 125.713 2.92668 122.599 4.46704 119.74C6.11008 116.881 8.16389 114.379 10.6285 112.235C13.093 109.989 16.1224 108.151 19.7166 106.721C25.878 104.373 32.4502 102.739 39.4332 101.82C46.5188 100.901 53.2964 100.442 59.7659 100.442C67.365 100.442 74.8614 100.901 82.2551 101.82C89.6488 102.739 97.0425 103.913 104.436 105.343C104.334 108.304 104.231 111.265 104.128 114.226C104.128 117.085 104.128 119.995 104.128 122.956C104.128 125.917 104.282 128.929 104.59 131.993C104.898 134.954 105.206 137.915 105.514 140.876C95.7589 141.08 86.0033 141.284 76.2477 141.488C66.5948 141.59 56.8392 141.846 46.9809 142.254C45.7486 142.254 44.0542 142.305 41.8977 142.407C39.8439 142.509 37.8415 142.663 35.8903 142.867C33.9392 142.969 32.2448 143.071 30.8072 143.173C29.3695 143.275 28.6507 143.326 28.6507 143.326C28.1372 144.449 27.8291 145.624 27.7264 146.849C27.6237 147.972 27.5724 149.146 27.5724 150.372C27.5724 150.984 27.5724 151.75 27.5724 152.669C27.6751 153.588 27.9318 154.303 28.3426 154.813C28.4453 154.915 29.3181 155.068 30.9612 155.273C32.6042 155.477 34.4013 155.681 36.3524 155.885C38.4062 156.089 40.306 156.294 42.0518 156.498C43.9002 156.702 45.0298 156.804 45.4405 156.804C48.8293 157.111 52.7829 157.468 57.3013 157.876C61.9224 158.285 66.5948 158.744 71.3186 159.255C76.145 159.765 80.7661 160.429 85.1818 161.246C89.5975 161.961 93.4484 162.828 96.7344 163.849C99.7125 164.871 102.434 166.504 104.898 168.751C107.466 170.895 109.673 173.447 111.522 176.408C113.37 179.267 114.808 182.331 115.835 185.598C116.964 188.763 117.529 191.877 117.529 194.941Z" fill="url(#paint0_linear_49_11042)"/>
<path d="M248.306 171.354C248.306 177.174 248.152 182.943 247.844 188.661C247.638 194.379 247.125 200.148 246.303 205.968C244.66 207.193 243.017 208.368 241.374 209.491C239.731 210.512 238.037 211.635 236.291 212.86C234.853 213.779 233.261 214.851 231.516 216.077C229.873 217.2 228.127 218.323 226.279 219.446C224.43 220.569 222.53 221.539 220.579 222.356C218.731 223.275 216.985 223.888 215.342 224.194C213.802 224.602 211.748 224.755 209.181 224.653C206.613 224.653 204.457 224.653 202.711 224.653C198.398 224.858 194.085 225.011 189.772 225.113C185.459 225.215 181.043 225.266 176.525 225.266C174.471 225.266 172.109 225.266 169.439 225.266C166.769 225.368 164.356 225.164 162.2 224.653C161.583 224.551 160.557 224.041 159.119 223.122C157.681 222.305 156.038 221.284 154.19 220.059C152.444 218.731 150.596 217.353 148.644 215.923C146.693 214.392 144.794 212.962 142.945 211.635C141.199 210.205 139.659 208.98 138.324 207.959C137.092 206.836 136.219 206.07 135.705 205.662C135.192 200.25 134.781 194.89 134.473 189.58C134.268 184.169 134.165 178.757 134.165 173.345C134.165 162.828 134.525 152.414 135.243 142.101C136.065 131.788 136.938 121.425 137.862 111.01L169.593 110.244C168.566 116.779 167.848 123.722 167.437 131.074C167.026 138.323 166.821 145.317 166.821 152.056C166.821 153.179 166.872 155.171 166.975 158.029C167.077 160.786 167.283 163.747 167.591 166.913C167.899 170.078 168.258 172.988 168.669 175.643C169.183 178.297 169.799 180.033 170.518 180.85C170.826 181.156 171.596 181.463 172.828 181.769C174.163 181.973 175.703 182.177 177.449 182.382C179.298 182.586 181.249 182.739 183.303 182.841C185.356 182.943 187.307 183.045 189.156 183.147C191.004 183.147 192.647 183.199 194.085 183.301C195.523 183.301 196.55 183.301 197.166 183.301C197.679 183.301 198.552 183.301 199.784 183.301C201.017 183.301 202.249 183.301 203.481 183.301C204.816 183.199 206.048 183.096 207.178 182.994C208.308 182.892 209.078 182.688 209.489 182.382C210.721 181.565 211.645 179.574 212.261 176.408C212.877 173.243 213.34 169.772 213.648 165.994C213.956 162.216 214.11 158.591 214.11 155.119C214.11 151.648 214.11 149.146 214.11 147.615C214.11 145.266 214.11 142.918 214.11 140.569C214.212 138.221 214.264 135.873 214.264 133.524C214.264 128.725 214.212 124.028 214.11 119.434C214.007 114.737 213.853 109.989 213.648 105.19C215.804 105.394 217.909 105.547 219.963 105.649C222.12 105.649 224.276 105.649 226.433 105.649C229 105.649 231.516 105.598 233.98 105.496C236.548 105.394 239.063 105.088 241.528 104.577C243.685 115.502 245.328 126.581 246.457 137.813C247.689 148.942 248.306 160.123 248.306 171.354Z" fill="url(#paint1_linear_49_11042)"/>
<path d="M383.087 145.011C383.087 147.257 382.933 149.963 382.625 153.128C382.419 156.294 382.009 159.51 381.393 162.777C380.879 166.045 380.109 169.108 379.082 171.967C378.055 174.826 376.771 177.072 375.231 178.706C374.615 179.421 372.612 180.135 369.224 180.85C365.938 181.463 361.933 182.126 357.209 182.841C352.588 183.454 347.607 184.066 342.267 184.679C336.928 185.292 331.844 185.853 327.018 186.364C322.294 186.772 318.187 187.13 314.695 187.436C311.204 187.742 308.996 187.895 308.072 187.895L306.839 219.752C303.656 219.957 300.524 220.008 297.443 219.905C294.362 219.701 291.23 219.599 288.047 219.599C285.993 219.599 283.939 219.65 281.885 219.752C279.832 219.854 277.778 220.008 275.724 220.212C275.724 210.614 275.724 201.118 275.724 191.724C275.724 182.331 275.519 172.835 275.108 163.237C274.8 154.558 274.492 145.93 274.184 137.353C273.978 128.776 273.773 120.148 273.567 111.469C284.145 110.755 294.773 109.887 305.453 108.866C316.235 107.742 326.967 107.181 337.646 107.181C339.495 107.181 342.421 107.385 346.426 107.793C350.431 108.1 354.642 108.661 359.057 109.478C363.473 110.193 367.529 111.112 371.226 112.235C375.026 113.358 377.542 114.635 378.774 116.064C379.595 116.983 380.263 118.77 380.776 121.425C381.393 124.079 381.855 126.938 382.163 130.001C382.471 132.963 382.676 135.873 382.779 138.731C382.984 141.59 383.087 143.684 383.087 145.011ZM339.957 143.939C339.957 143.02 339.906 141.846 339.803 140.416C339.7 138.987 339.495 137.608 339.187 136.281C338.981 134.851 338.622 133.575 338.108 132.452C337.595 131.227 336.928 130.359 336.106 129.848C335.593 129.542 334.771 129.287 333.641 129.083C332.512 128.878 331.331 128.725 330.099 128.623C328.866 128.521 327.685 128.47 326.556 128.47C325.426 128.368 324.605 128.317 324.091 128.317C320.292 128.317 316.492 128.521 312.693 128.929C308.893 129.338 305.042 129.848 301.14 130.461C301.448 133.524 301.602 136.536 301.602 139.497C301.705 142.458 301.756 145.419 301.756 148.38C301.756 153.179 301.91 158.029 302.218 162.931C303.553 162.931 305.864 162.879 309.15 162.777C312.436 162.573 315.876 162.318 319.47 162.012C323.064 161.603 326.453 161.093 329.637 160.48C332.82 159.765 334.976 158.846 336.106 157.723C337.954 155.987 339.033 153.894 339.341 151.444C339.752 148.891 339.957 146.389 339.957 143.939Z" fill="url(#paint2_linear_49_11042)"/>
<path d="M500 221.437L476.587 224.96C474.944 219.752 473.301 214.596 471.657 209.491C470.014 204.283 468.423 199.076 466.882 193.869L428.99 195.247L424.214 215.617H400.493C401.931 198.259 403.42 181.003 404.96 163.849C406.5 146.696 407.989 129.491 409.427 112.235C416.821 111.01 424.163 109.989 431.454 109.172C438.848 108.355 446.293 107.947 453.789 107.947C462.929 107.947 472.068 108.1 481.208 108.406C482.851 119.025 484.442 129.644 485.983 140.263C487.626 150.78 489.32 161.348 491.066 171.967C492.298 180.34 493.633 188.61 495.071 196.779C496.611 204.947 498.254 213.167 500 221.437ZM461.491 173.039C461.388 172.12 461.132 170.435 460.721 167.985C460.31 165.432 459.848 162.777 459.335 160.021C458.821 157.162 458.205 154.609 457.486 152.363C456.87 150.014 456.254 148.636 455.638 148.227C455.432 148.125 454.919 148.023 454.097 147.921C453.379 147.819 452.557 147.717 451.633 147.615C450.811 147.513 449.99 147.462 449.168 147.462C448.347 147.462 447.782 147.462 447.474 147.462C446.96 147.462 446.242 147.462 445.317 147.462C444.496 147.462 443.572 147.513 442.545 147.615C441.621 147.615 440.696 147.717 439.772 147.921C438.951 148.125 438.386 148.38 438.078 148.687C437.872 148.789 437.616 149.453 437.307 150.678C436.999 151.903 436.589 153.435 436.075 155.273C435.664 157.008 435.202 158.897 434.689 160.939C434.278 162.982 433.867 164.922 433.457 166.759C433.046 168.597 432.686 170.18 432.378 171.507C432.173 172.835 432.019 173.601 431.916 173.805L461.491 173.039Z" fill="url(#paint3_linear_49_11042)"/>
<path d="M63.6888 271.416C57.2259 271.786 50.8372 272.081 44.5229 272.303C38.2828 272.524 31.9684 272.93 25.5797 273.521L26.4712 283.05L44.9686 284.268L48.0886 295.348C44.7457 296.087 41.3657 296.678 37.9485 297.121C34.6056 297.49 31.2627 298.007 27.9198 298.672C28.6626 304.212 29.1826 309.751 29.4798 315.291C29.7769 320.757 29.9255 326.26 29.9255 331.8L0.619385 332.797C0.990819 324.155 1.21368 315.587 1.28797 307.092C1.36225 298.524 1.3994 289.919 1.3994 281.277V249.146C5.70803 249.072 9.94237 248.999 14.1024 248.925C18.3368 248.777 22.6083 248.703 26.9169 248.703C32.7113 248.703 38.5056 248.851 44.3 249.146C50.0944 249.368 55.9259 249.626 61.7945 249.922C62.2402 253.467 62.6488 257.05 63.0203 260.669C63.466 264.215 63.6888 267.797 63.6888 271.416Z" fill="url(#paint4_linear_49_11042)"/>
<path d="M144.81 329.473L127.873 332.021C126.684 328.254 125.495 324.524 124.307 320.831C123.118 317.064 121.967 313.297 120.852 309.53L93.4407 310.527L89.9863 325.263H72.8261C73.8661 312.706 74.9433 300.223 76.0576 287.814C77.1719 275.405 78.249 262.959 79.289 250.476C84.6377 249.59 89.9492 248.851 95.2236 248.26C100.572 247.669 105.958 247.374 111.381 247.374C117.992 247.374 124.604 247.484 131.215 247.706C132.404 255.388 133.556 263.07 134.67 270.751C135.858 278.359 137.084 286.004 138.347 293.686C139.238 299.743 140.204 305.726 141.244 311.635C142.358 317.544 143.547 323.49 144.81 329.473ZM116.952 294.462C116.878 293.797 116.692 292.578 116.395 290.805C116.098 288.959 115.764 287.038 115.392 285.044C115.021 282.976 114.575 281.129 114.055 279.504C113.61 277.805 113.164 276.808 112.718 276.513C112.57 276.439 112.198 276.365 111.604 276.291C111.084 276.217 110.489 276.143 109.821 276.07C109.227 275.996 108.632 275.959 108.038 275.959C107.444 275.959 107.035 275.959 106.812 275.959C106.441 275.959 105.921 275.959 105.252 275.959C104.658 275.959 103.989 275.996 103.247 276.07C102.578 276.07 101.909 276.143 101.241 276.291C100.646 276.439 100.238 276.624 100.015 276.845C99.8665 276.919 99.6808 277.399 99.4579 278.286C99.235 279.172 98.9379 280.28 98.5665 281.609C98.2693 282.865 97.935 284.232 97.5636 285.709C97.2664 287.186 96.9693 288.59 96.6721 289.919C96.375 291.249 96.115 292.393 95.8921 293.354C95.7436 294.314 95.6321 294.868 95.5578 295.016L116.952 294.462Z" fill="url(#paint5_linear_49_11042)"/>
<path d="M227.045 303.547L226.934 320.831C223.517 321.496 220.137 322.124 216.794 322.715C213.451 323.305 210.071 323.822 206.654 324.266C203.088 324.709 199.522 325.115 195.956 325.484C192.391 325.854 188.825 326.038 185.259 326.038C184.219 326.038 182.696 326.001 180.69 325.928C178.685 325.854 176.605 325.706 174.45 325.484C172.296 325.263 170.253 325.004 168.322 324.709C166.39 324.34 164.979 323.896 164.087 323.379C163.27 322.862 162.49 322.271 161.747 321.607C161.004 320.868 160.336 320.129 159.742 319.391C158.182 317.47 156.882 315.365 155.842 313.075C154.802 310.786 153.984 308.422 153.39 305.984C152.796 303.547 152.35 301.072 152.053 298.561C151.83 296.05 151.719 293.575 151.719 291.138C151.719 288.183 151.867 285.118 152.164 281.942C152.536 278.766 153.093 275.626 153.836 272.524C154.579 269.422 155.544 266.43 156.733 263.55C157.996 260.669 159.519 258.01 161.302 255.572C161.822 254.908 162.49 254.095 163.307 253.135C164.125 252.175 164.942 251.473 165.759 251.03C167.765 249.922 169.993 248.999 172.445 248.26C174.97 247.521 177.57 246.967 180.245 246.598C182.919 246.155 185.556 245.859 188.156 245.712C190.831 245.49 193.282 245.379 195.511 245.379C199.745 245.379 203.979 245.638 208.214 246.155C212.448 246.598 216.571 247.411 220.582 248.592C220.434 250.587 220.322 252.618 220.248 254.686C220.174 256.68 220.137 258.675 220.137 260.669C220.137 265.47 220.248 270.308 220.471 275.183C217.128 273.928 213.637 273.041 209.997 272.524C206.357 271.933 202.754 271.638 199.188 271.638C198.445 271.638 197.368 271.712 195.956 271.859C194.545 271.933 192.948 272.081 191.165 272.303C189.382 272.45 187.525 272.672 185.593 272.967C183.736 273.263 181.99 273.632 180.356 274.075C178.722 274.518 177.273 275.036 176.01 275.626C174.822 276.217 174.042 276.845 173.67 277.51C173.373 278.101 173.113 278.95 172.89 280.058C172.742 281.092 172.593 282.2 172.445 283.382C172.37 284.564 172.296 285.709 172.222 286.817C172.222 287.925 172.222 288.811 172.222 289.476C172.222 290.141 172.296 291.47 172.445 293.465C172.593 295.459 172.779 297.601 173.002 299.891C173.225 302.107 173.485 304.138 173.782 305.984C174.153 307.831 174.525 308.902 174.896 309.197C175.268 309.419 175.862 309.567 176.679 309.641C177.57 309.641 178.165 309.641 178.462 309.641C182.102 309.641 186.002 309.456 190.162 309.087C194.322 308.717 198.519 308.237 202.754 307.646C207.062 306.982 211.297 306.317 215.457 305.652C219.617 304.913 223.48 304.212 227.045 303.547Z" fill="url(#paint6_linear_49_11042)"/>
<path d="M299.921 265.322V273.078L278.415 274.186C278.118 278.47 277.895 282.717 277.746 286.928C277.598 291.138 277.523 295.348 277.523 299.558C277.523 304.729 277.375 309.899 277.077 315.07C276.855 320.166 276.557 325.263 276.186 330.359C273.512 330.507 270.837 330.618 268.163 330.692C265.489 330.84 262.814 330.913 260.14 330.913C259.174 330.913 258.209 330.876 257.243 330.803C256.351 330.803 255.46 330.803 254.569 330.803C254.717 326.297 254.829 321.828 254.903 317.396C255.051 312.891 255.126 308.422 255.126 303.99C255.126 299.558 255.014 295.126 254.791 290.695C254.569 286.189 254.309 281.683 254.011 277.178C251.857 277.251 249.666 277.325 247.437 277.399C245.283 277.473 243.091 277.51 240.863 277.51C239.6 277.51 238.337 277.51 237.074 277.51C235.885 277.51 234.66 277.473 233.397 277.399C233.174 271.933 233.025 266.504 232.951 261.112C232.877 255.72 232.803 250.328 232.728 244.936C243.871 245.158 254.94 245.49 265.934 245.933C276.929 246.303 287.961 246.635 299.029 246.93C299.326 250.107 299.549 253.209 299.698 256.237C299.846 259.192 299.921 262.22 299.921 265.322Z" fill="url(#paint7_linear_49_11042)"/>
<path d="M404.219 282.496C404.219 283.456 404.219 284.416 404.219 285.376C404.219 286.263 404.182 287.149 404.108 288.036C404.034 288.774 403.922 290.067 403.774 291.913C403.699 293.76 403.551 295.902 403.328 298.34C403.179 300.703 402.956 303.215 402.659 305.874C402.436 308.533 402.139 311.007 401.768 313.297C401.471 315.513 401.136 317.433 400.765 319.058C400.393 320.683 400.022 321.68 399.651 322.05C397.422 324.266 394.748 325.928 391.628 327.036C388.582 328.07 385.388 328.771 382.045 329.141C378.702 329.51 375.359 329.658 372.016 329.584C368.673 329.51 365.553 329.473 362.656 329.473C361.69 329.473 360.056 329.473 357.753 329.473C355.45 329.399 352.813 329.325 349.841 329.251C346.944 329.178 343.898 329.067 340.704 328.919C337.51 328.697 334.501 328.439 331.678 328.144C328.93 327.774 326.515 327.368 324.435 326.925C322.43 326.408 321.167 325.78 320.647 325.041C320.052 324.229 319.532 323.342 319.087 322.382C318.641 321.422 318.232 320.499 317.861 319.612C316.895 317.175 316.004 314.59 315.187 311.857C314.369 309.05 313.664 306.206 313.069 303.325C312.549 300.371 312.104 297.453 311.732 294.572C311.435 291.692 311.287 288.959 311.287 286.374C311.287 284.97 311.398 283.161 311.621 280.945C311.844 278.655 312.141 276.217 312.512 273.632C312.884 270.973 313.329 268.277 313.849 265.544C314.369 262.811 314.927 260.263 315.521 257.899C316.189 255.536 316.895 253.504 317.638 251.805C318.381 250.033 319.198 248.851 320.09 248.26C320.832 247.743 322.207 247.263 324.212 246.82C326.218 246.376 328.558 246.007 331.233 245.712C333.907 245.342 336.767 245.047 339.813 244.825C342.858 244.53 345.756 244.308 348.504 244.161C351.253 243.939 353.741 243.791 355.97 243.717C358.199 243.643 359.833 243.607 360.873 243.607C362.284 243.607 364.179 243.68 366.556 243.828C369.007 243.976 371.645 244.234 374.467 244.604C377.29 244.899 380.15 245.305 383.048 245.822C385.945 246.266 388.619 246.82 391.071 247.484C393.596 248.149 395.751 248.888 397.533 249.7C399.316 250.513 400.431 251.399 400.876 252.359C401.248 253.172 401.582 254.354 401.879 255.905C402.251 257.382 402.548 259.081 402.771 261.001C402.994 262.922 403.179 264.953 403.328 267.095C403.551 269.237 403.699 271.305 403.774 273.3C403.922 275.22 404.034 276.993 404.108 278.618C404.182 280.243 404.219 281.536 404.219 282.496ZM384.273 286.152C384.273 284.675 384.199 283.124 384.05 281.499C383.902 279.8 383.419 278.322 382.602 277.067C382.008 276.18 380.559 275.479 378.256 274.962C376.027 274.445 373.539 274.075 370.79 273.854C368.116 273.632 365.516 273.521 362.99 273.521C360.464 273.447 358.681 273.411 357.641 273.411C356.824 273.411 355.376 273.484 353.296 273.632C351.29 273.78 349.136 274.038 346.833 274.408C344.604 274.703 342.524 275.109 340.593 275.626C338.661 276.07 337.473 276.624 337.027 277.288C336.581 277.805 336.21 278.803 335.913 280.28C335.69 281.683 335.467 283.234 335.244 284.933C335.095 286.558 334.984 288.146 334.91 289.697C334.835 291.175 334.798 292.246 334.798 292.911C334.798 293.501 334.798 294.388 334.798 295.57C334.873 296.751 334.984 297.97 335.133 299.226C335.281 300.482 335.43 301.663 335.578 302.771C335.801 303.879 336.098 304.692 336.47 305.209C336.693 305.578 337.361 305.911 338.476 306.206C339.59 306.501 340.927 306.797 342.487 307.092C344.121 307.314 345.83 307.499 347.613 307.646C349.396 307.794 351.104 307.942 352.739 308.09C354.447 308.163 355.933 308.237 357.196 308.311C358.533 308.311 359.462 308.311 359.982 308.311C360.873 308.311 362.396 308.237 364.55 308.09C366.779 307.942 369.082 307.72 371.459 307.425C373.91 307.055 376.139 306.649 378.145 306.206C380.225 305.689 381.562 305.098 382.156 304.433C382.602 303.916 382.973 302.845 383.27 301.22C383.568 299.521 383.79 297.712 383.939 295.791C384.088 293.797 384.162 291.913 384.162 290.141C384.236 288.294 384.273 286.965 384.273 286.152Z" fill="url(#paint8_linear_49_11042)"/>
<path d="M499.381 274.075C499.381 280.132 497.523 284.896 493.809 288.368C490.095 291.84 485.192 293.723 479.1 294.018C486.455 306.206 492.88 318.689 498.378 331.467L465.84 332.243C465.246 326.26 464.354 320.757 463.166 315.734C461.977 310.712 460.306 305.43 458.151 299.891C455.7 300.038 453.249 300.223 450.797 300.445C448.42 300.666 446.043 300.851 443.666 300.999L444.223 326.149C439.988 326.371 435.754 326.482 431.52 326.482C429.365 326.482 427.248 326.445 425.168 326.371C423.162 326.297 421.12 326.149 419.039 325.928C419.559 319.132 420.042 312.374 420.488 305.652C420.934 298.857 421.194 292.098 421.268 285.376C421.491 273.411 421.825 261.445 422.271 249.479C429.254 249.109 436.2 248.703 443.108 248.26C450.091 247.817 457.074 247.595 464.057 247.595C465.84 247.595 467.772 247.632 469.852 247.706C471.932 247.78 474.012 248.001 476.092 248.371C478.246 248.666 480.289 249.109 482.22 249.7C484.226 250.291 486.009 251.067 487.569 252.027C491.358 254.391 494.255 257.567 496.261 261.555C498.341 265.47 499.381 269.643 499.381 274.075ZM473.529 272.303C473.529 271.712 473.492 270.899 473.417 269.865C473.417 268.831 473.343 267.797 473.195 266.763C473.046 265.655 472.823 264.658 472.526 263.771C472.229 262.811 471.82 262.109 471.3 261.666C470.929 261.371 470.297 261.149 469.406 261.001C468.514 260.854 467.549 260.743 466.509 260.669C465.543 260.521 464.577 260.447 463.612 260.447C462.72 260.374 462.089 260.337 461.717 260.337C458.746 260.337 455.811 260.484 452.914 260.78C450.091 261.075 447.268 261.445 444.446 261.888L447.454 283.382C449.088 283.751 450.797 284.01 452.58 284.158C454.363 284.305 456.109 284.379 457.817 284.379C458.56 284.379 459.637 284.342 461.049 284.268C462.534 284.195 464.02 284.047 465.506 283.825C467.066 283.604 468.477 283.308 469.74 282.939C471.077 282.496 472.006 281.942 472.526 281.277C472.749 280.982 472.935 280.428 473.083 279.615C473.232 278.729 473.306 277.842 473.306 276.956C473.38 275.996 473.417 275.072 473.417 274.186C473.492 273.3 473.529 272.672 473.529 272.303Z" fill="url(#paint9_linear_49_11042)"/>
<defs>
<linearGradient id="paint0_linear_49_11042" x1="251.145" y1="162.255" x2="251.171" y2="230.767" gradientUnits="userSpaceOnUse">
<stop stop-color="#62EF24"/>
<stop offset="1" stop-color="#37971C"/>
</linearGradient>
<linearGradient id="paint1_linear_49_11042" x1="251.145" y1="162.255" x2="251.171" y2="230.767" gradientUnits="userSpaceOnUse">
<stop stop-color="#62EF24"/>
<stop offset="1" stop-color="#37971C"/>
</linearGradient>
<linearGradient id="paint2_linear_49_11042" x1="251.145" y1="162.255" x2="251.171" y2="230.767" gradientUnits="userSpaceOnUse">
<stop stop-color="#62EF24"/>
<stop offset="1" stop-color="#37971C"/>
</linearGradient>
<linearGradient id="paint3_linear_49_11042" x1="251.145" y1="162.255" x2="251.171" y2="230.767" gradientUnits="userSpaceOnUse">
<stop stop-color="#62EF24"/>
<stop offset="1" stop-color="#37971C"/>
</linearGradient>
<linearGradient id="paint4_linear_49_11042" x1="251.306" y1="101.57" x2="251.306" y2="332.797" gradientUnits="userSpaceOnUse">
<stop stop-color="white"/>
<stop offset="1" stop-color="#FAFAFA"/>
</linearGradient>
<linearGradient id="paint5_linear_49_11042" x1="251.306" y1="101.57" x2="251.306" y2="332.797" gradientUnits="userSpaceOnUse">
<stop stop-color="white"/>
<stop offset="1" stop-color="#FAFAFA"/>
</linearGradient>
<linearGradient id="paint6_linear_49_11042" x1="251.306" y1="101.57" x2="251.306" y2="332.797" gradientUnits="userSpaceOnUse">
<stop stop-color="white"/>
<stop offset="1" stop-color="#FAFAFA"/>
</linearGradient>
<linearGradient id="paint7_linear_49_11042" x1="251.306" y1="101.57" x2="251.306" y2="332.797" gradientUnits="userSpaceOnUse">
<stop stop-color="white"/>
<stop offset="1" stop-color="#FAFAFA"/>
</linearGradient>
<linearGradient id="paint8_linear_49_11042" x1="251.306" y1="101.57" x2="251.306" y2="332.797" gradientUnits="userSpaceOnUse">
<stop stop-color="white"/>
<stop offset="1" stop-color="#FAFAFA"/>
</linearGradient>
<linearGradient id="paint9_linear_49_11042" x1="251.306" y1="101.57" x2="251.306" y2="332.797" gradientUnits="userSpaceOnUse">
<stop stop-color="white"/>
<stop offset="1" stop-color="#FAFAFA"/>
</linearGradient>
</defs>
</svg>
