<svg width="451" height="224" viewBox="0 0 451 224" fill="none" xmlns="http://www.w3.org/2000/svg">
<path d="M105.864 91.0182C105.864 95.7387 104.8 99.5742 102.673 102.525C100.545 105.377 97.5391 107.688 93.6542 109.458C90.4167 110.933 86.3468 112.113 81.4444 112.998C76.5421 113.785 71.4547 114.375 66.1823 114.768C60.9099 115.064 55.73 115.26 50.6426 115.359C45.5552 115.457 41.3003 115.506 37.8779 115.506C32.0505 115.506 26.2694 115.408 20.5345 115.211C14.8922 115.014 9.1573 114.719 3.32993 114.326C3.60742 104.295 3.32993 94.3619 2.49744 84.5274C9.43479 84.7241 16.3259 84.9208 23.1707 85.1175C30.1081 85.2158 37.0454 85.3634 43.9828 85.56C46.6652 85.6584 49.3477 85.7567 52.0301 85.8551C54.805 85.9534 57.58 86.0026 60.3549 86.0026C60.8174 86.0026 61.5111 86.0026 62.4361 86.0026C63.3611 86.0026 64.3323 85.9534 65.3498 85.8551C66.3673 85.7567 67.2923 85.6092 68.1247 85.4125C69.0497 85.2158 69.7435 84.9208 70.2059 84.5274C70.5759 84.134 70.8072 83.5931 70.8997 82.9047C70.9922 82.118 71.0384 81.4296 71.0384 80.8395C71.0384 79.7577 70.8997 78.4792 70.6222 77.004C70.3447 75.4305 69.9284 74.152 69.3735 73.1686C69.281 73.0702 68.9572 72.9719 68.4022 72.8736C67.9397 72.7752 67.3848 72.726 66.7373 72.726C66.0898 72.6277 65.4885 72.5785 64.9336 72.5785C64.3786 72.4802 64.0548 72.431 63.9623 72.431C58.0425 71.9393 52.1226 71.5951 46.2027 71.3984C40.3754 71.2017 34.5017 70.8575 28.5819 70.3658C25.8994 70.0707 23.1245 69.7757 20.2571 69.4807C17.4821 69.1856 14.8922 68.6447 12.4872 67.858C10.1748 67.1696 8.18607 65.6452 6.5211 63.2849C4.94864 60.8263 3.65367 58.0727 2.63619 55.024C1.71121 51.8769 1.01748 48.7299 0.554988 45.5829C0.184996 42.4358 0 39.7805 0 37.6169C0 34.0765 0.323743 30.7328 0.971228 27.5857C1.61871 24.3404 2.63619 21.3408 4.02366 18.5872C5.50363 15.8335 7.35359 13.4241 9.57354 11.3588C11.7935 9.19525 14.5222 7.42504 17.7596 6.04821C23.3095 3.78628 29.2294 2.21276 35.5192 1.32766C41.9016 0.442552 48.0064 0 53.8338 0C60.6787 0 67.431 0.442552 74.0909 1.32766C80.7507 2.21276 87.4106 3.34373 94.0704 4.72055C93.9779 7.57256 93.8854 10.4246 93.7929 13.2766C93.7929 16.0302 93.7929 18.833 93.7929 21.685C93.7929 24.537 93.9317 27.4382 94.2092 30.3886C94.4866 33.2406 94.7641 36.0926 95.0416 38.9446C86.2543 39.1413 77.467 39.338 68.6797 39.5346C59.9849 39.633 51.1976 39.8788 42.3178 40.2722C41.2078 40.2722 39.6816 40.3214 37.7392 40.4197C35.8892 40.5181 34.0855 40.6656 32.328 40.8623C30.5706 40.9606 29.0444 41.059 27.7494 41.1573C26.4544 41.2557 25.8069 41.3048 25.8069 41.3048C25.3444 42.3866 25.0669 43.5176 24.9744 44.6977C24.8819 45.7795 24.8357 46.9105 24.8357 48.0906C24.8357 48.6807 24.8357 49.4183 24.8357 50.3034C24.9282 51.1885 25.1594 51.8769 25.5294 52.3686C25.6219 52.467 26.4082 52.6145 27.8881 52.8112C29.3681 53.0079 30.9868 53.2046 32.7443 53.4013C34.5942 53.598 36.3054 53.7947 37.8779 53.9913C39.5429 54.188 40.5603 54.2864 40.9303 54.2864C43.9828 54.5814 47.5439 54.9256 51.6139 55.319C55.7763 55.7124 59.9849 56.1549 64.2398 56.6467C68.5872 57.1384 72.7496 57.7776 76.727 58.5644C80.7045 59.2528 84.1731 60.0887 87.1331 61.0722C89.8155 62.0556 92.2667 63.6291 94.4867 65.7927C96.7991 67.858 98.7878 70.3166 100.453 73.1686C102.118 75.9222 103.413 78.8726 104.338 82.0196C105.355 85.0683 105.864 88.0678 105.864 91.0182Z" fill="url(#paint0_linear_72_3)"/>
<path d="M223.66 68.3005C223.66 73.9062 223.521 79.4627 223.244 84.97C223.059 90.4773 222.596 96.0338 221.856 101.639C220.376 102.82 218.896 103.951 217.416 105.032C215.936 106.016 214.41 107.098 212.838 108.278C211.543 109.163 210.109 110.195 208.537 111.376C207.057 112.457 205.484 113.539 203.819 114.621C202.154 115.703 200.443 116.637 198.686 117.424C197.021 118.309 195.448 118.899 193.968 119.194C192.581 119.587 190.731 119.735 188.418 119.637C186.106 119.637 184.163 119.637 182.591 119.637C178.706 119.833 174.821 119.981 170.936 120.079C167.051 120.177 163.074 120.227 159.004 120.227C157.154 120.227 155.027 120.227 152.622 120.227C150.217 120.325 148.043 120.128 146.1 119.637C145.546 119.538 144.621 119.046 143.326 118.161C142.031 117.375 140.551 116.391 138.886 115.211C137.313 113.933 135.648 112.605 133.891 111.228C132.133 109.753 130.422 108.376 128.757 107.098C127.185 105.721 125.797 104.541 124.595 103.557C123.485 102.475 122.699 101.738 122.236 101.344C121.774 96.1321 121.404 90.969 121.126 85.8551C120.941 80.6428 120.849 75.4305 120.849 70.2182C120.849 60.0887 121.172 50.0575 121.82 40.1247C122.56 30.1919 123.346 20.2099 124.178 10.1787L152.76 9.44111C151.835 15.7352 151.188 22.4226 150.818 29.5035C150.448 36.486 150.263 43.2226 150.263 49.7133C150.263 50.7951 150.309 52.7129 150.402 55.4665C150.494 58.1218 150.679 60.9738 150.957 64.0225C151.234 67.0712 151.558 69.874 151.928 72.431C152.39 74.988 152.945 76.6598 153.593 77.4466C153.87 77.7416 154.564 78.0367 155.674 78.3317C156.877 78.5284 158.264 78.7251 159.836 78.9218C161.501 79.1185 163.259 79.266 165.109 79.3643C166.959 79.4627 168.716 79.561 170.381 79.6594C172.046 79.6594 173.526 79.7085 174.821 79.8069C176.116 79.8069 177.041 79.8069 177.596 79.8069C178.059 79.8069 178.845 79.8069 179.955 79.8069C181.065 79.8069 182.175 79.8069 183.285 79.8069C184.487 79.7085 185.597 79.6102 186.615 79.5118C187.632 79.4135 188.326 79.2168 188.696 78.9218C189.806 78.135 190.638 76.2173 191.193 73.1686C191.748 70.1199 192.164 66.7762 192.442 63.1374C192.719 59.4987 192.858 56.0074 192.858 52.6637C192.858 49.32 192.858 46.9105 192.858 45.4353C192.858 43.1734 192.858 40.9115 192.858 38.6495C192.951 36.3876 192.997 34.1257 192.997 31.8637C192.997 27.2415 192.951 22.7177 192.858 18.2921C192.766 13.7683 192.627 9.19525 192.442 4.57304C194.384 4.76973 196.281 4.91724 198.131 5.01559C200.073 5.01559 202.016 5.01559 203.958 5.01559C206.27 5.01559 208.537 4.96642 210.757 4.86807C213.069 4.76973 215.335 4.47469 217.555 3.98297C219.498 14.5059 220.978 25.1763 221.995 35.9942C223.105 46.7138 223.66 57.4826 223.66 68.3005Z" fill="url(#paint1_linear_72_3)"/>
<path d="M345.064 42.9275C345.064 45.0911 344.925 47.6973 344.647 50.746C344.462 53.7947 344.092 56.8925 343.537 60.0395C343.075 63.1866 342.381 66.1369 341.456 68.8906C340.531 71.6442 339.375 73.8078 337.987 75.3813C337.432 76.0698 335.629 76.7582 332.576 77.4466C329.616 78.0367 326.009 78.6759 321.754 79.3643C317.592 79.9544 313.106 80.5445 308.296 81.1345C303.486 81.7246 298.907 82.2655 294.56 82.7572C290.305 83.1506 286.605 83.4948 283.46 83.7898C280.315 84.0849 278.326 84.2324 277.494 84.2324L276.384 114.916C273.516 115.113 270.695 115.162 267.92 115.064C265.145 114.867 262.324 114.768 259.457 114.768C257.607 114.768 255.757 114.818 253.907 114.916C252.057 115.014 250.207 115.162 248.357 115.359C248.357 106.114 248.357 96.9681 248.357 87.9203C248.357 78.8726 248.172 69.7265 247.802 60.4821C247.524 52.1228 247.247 43.8126 246.969 35.5517C246.784 27.2907 246.6 18.9806 246.415 10.6212C255.942 9.93283 265.515 9.0969 275.135 8.11345C284.847 7.03166 294.513 6.49076 304.133 6.49076C305.798 6.49076 308.434 6.68745 312.042 7.08083C315.649 7.37587 319.442 7.91676 323.419 8.70352C327.396 9.39194 331.05 10.277 334.38 11.3588C337.802 12.4406 340.069 13.6699 341.179 15.0468C341.919 15.9319 342.52 17.6529 342.982 20.2099C343.537 22.7668 343.954 25.5205 344.231 28.4708C344.509 31.3228 344.694 34.1257 344.786 36.8793C344.971 39.633 345.064 41.6491 345.064 42.9275ZM306.214 41.8949C306.214 41.0098 306.168 39.8788 306.076 38.502C305.983 37.1252 305.798 35.7975 305.521 34.5191C305.336 33.1422 305.012 31.9129 304.549 30.8311C304.087 29.651 303.486 28.815 302.746 28.3233C302.283 28.0283 301.543 27.7824 300.526 27.5857C299.508 27.389 298.445 27.2415 297.335 27.1432C296.225 27.0448 295.161 26.9957 294.143 26.9957C293.126 26.8973 292.386 26.8482 291.924 26.8482C288.501 26.8482 285.079 27.0448 281.656 27.4382C278.234 27.8316 274.765 28.3233 271.25 28.9134C271.528 31.8637 271.666 34.7649 271.666 37.6169C271.759 40.4689 271.805 43.3209 271.805 46.1729C271.805 50.7951 271.944 55.4665 272.221 60.1871C273.424 60.1871 275.505 60.1379 278.465 60.0395C281.425 59.8429 284.524 59.597 287.761 59.302C290.999 58.9086 294.051 58.4169 296.918 57.8268C299.786 57.1384 301.728 56.2533 302.746 55.1715C304.411 53.4996 305.382 51.4835 305.659 49.1233C306.029 46.6646 306.214 44.2552 306.214 41.8949Z" fill="url(#paint2_linear_72_3)"/>
<path d="M450.372 116.539L429.283 119.932C427.803 114.916 426.323 109.95 424.843 105.032C423.363 100.017 421.929 95.0012 420.542 89.9856L386.41 91.3132L382.109 110.933H360.742C362.037 94.2144 363.378 77.5941 364.766 61.0722C366.153 44.5502 367.494 27.9791 368.789 11.3588C375.449 10.1787 382.063 9.19525 388.63 8.40849C395.29 7.62173 401.996 7.22835 408.748 7.22835C416.981 7.22835 425.213 7.37587 433.445 7.6709C434.925 17.8988 436.359 28.1266 437.746 38.3545C439.226 48.484 440.753 58.6627 442.325 68.8906C443.435 76.9549 444.638 84.9208 445.933 92.7884C447.32 100.656 448.8 108.573 450.372 116.539ZM415.686 69.9232C415.593 69.0381 415.362 67.4154 414.992 65.0551C414.622 62.5965 414.206 60.0396 413.743 57.3842C413.281 54.6306 412.726 52.172 412.078 50.0084C411.523 47.7464 410.968 46.4188 410.413 46.0254C410.228 45.9271 409.766 45.8287 409.026 45.7304C408.378 45.632 407.638 45.5337 406.806 45.4353C406.066 45.337 405.326 45.2878 404.586 45.2878C403.846 45.2878 403.337 45.2878 403.06 45.2878C402.597 45.2878 401.95 45.2878 401.117 45.2878C400.377 45.2878 399.545 45.337 398.62 45.4353C397.787 45.4353 396.955 45.5337 396.122 45.7304C395.382 45.9271 394.874 46.1729 394.596 46.468C394.411 46.5663 394.18 47.2055 393.902 48.3857C393.625 49.5658 393.255 51.041 392.793 52.8112C392.423 54.4831 392.006 56.3024 391.544 58.2693C391.174 60.2362 390.804 62.1048 390.434 63.875C390.064 65.6452 389.74 67.1696 389.463 68.448C389.278 69.7265 389.139 70.4641 389.046 70.6608L415.686 69.9232Z" fill="url(#paint3_linear_72_3)"/>
<path d="M57.3674 164.677C51.5459 165.033 45.7913 165.317 40.1037 165.531C34.483 165.744 28.7953 166.135 23.0408 166.705L23.8437 175.882L40.5052 177.056L43.3155 187.727C40.3044 188.439 37.2599 189.008 34.1819 189.435C31.1707 189.79 28.1596 190.288 25.1485 190.929C25.8177 196.265 26.2861 201.6 26.5537 206.936C26.8214 212.201 26.9552 217.501 26.9552 222.836L0.557861 223.797C0.892428 215.473 1.09317 207.221 1.16008 199.039C1.227 190.787 1.26045 182.498 1.26045 174.175V143.227C5.14143 143.156 8.95549 143.085 12.7026 143.014C16.5167 142.872 20.3642 142.8 24.2452 142.8C29.4645 142.8 34.6837 142.943 39.9029 143.227C45.1222 143.441 50.3749 143.69 55.6611 143.974C56.0625 147.389 56.4306 150.84 56.7651 154.326C57.1666 157.741 57.3674 161.191 57.3674 164.677Z" fill="url(#paint4_linear_72_3)"/>
<path d="M130.437 220.595L115.181 223.05C114.11 219.422 113.039 215.829 111.969 212.272C110.898 208.643 109.861 205.015 108.857 201.387L84.1662 202.347L81.0547 216.54H65.5977C66.5345 204.446 67.5047 192.423 68.5084 180.471C69.5121 168.519 70.4824 156.531 71.4192 144.508C76.2369 143.654 81.0212 142.943 85.7721 142.374C90.5899 141.804 95.4411 141.52 100.326 141.52C106.281 141.52 112.236 141.627 118.192 141.84C119.262 149.239 120.299 156.638 121.303 164.037C122.374 171.364 123.478 178.728 124.615 186.127C125.418 191.96 126.288 197.723 127.225 203.414C128.229 209.106 129.299 214.833 130.437 220.595ZM105.344 186.874C105.277 186.233 105.11 185.059 104.842 183.352C104.575 181.573 104.274 179.724 103.939 177.803C103.605 175.811 103.203 174.032 102.735 172.467C102.333 170.831 101.932 169.87 101.53 169.586C101.396 169.515 101.062 169.444 100.526 169.372C100.058 169.301 99.5228 169.23 98.9206 169.159C98.3853 169.088 97.85 169.052 97.3147 169.052C96.7793 169.052 96.4113 169.052 96.2106 169.052C95.876 169.052 95.4076 169.052 94.8054 169.052C94.2701 169.052 93.6679 169.088 92.9987 169.159C92.3965 169.159 91.7943 169.23 91.1921 169.372C90.6568 169.515 90.2887 169.693 90.088 169.906C89.9542 169.977 89.7869 170.44 89.5862 171.293C89.3854 172.147 89.1178 173.214 88.7832 174.495C88.5155 175.704 88.2144 177.02 87.8799 178.443C87.6122 179.866 87.3446 181.218 87.0769 182.498C86.8093 183.779 86.5751 184.882 86.3743 185.806C86.2405 186.731 86.1401 187.265 86.0732 187.407L105.344 186.874Z" fill="url(#paint5_linear_72_3)"/>
<path d="M204.51 195.624L204.41 212.272C201.332 212.912 198.287 213.517 195.276 214.086C192.265 214.655 189.22 215.153 186.142 215.58C182.93 216.007 179.719 216.398 176.507 216.754C173.295 217.109 170.083 217.287 166.871 217.287C165.934 217.287 164.563 217.252 162.756 217.181C160.949 217.109 159.076 216.967 157.135 216.754C155.195 216.54 153.355 216.291 151.615 216.007C149.875 215.651 148.604 215.224 147.801 214.726C147.065 214.228 146.362 213.659 145.693 213.019C145.024 212.307 144.422 211.596 143.886 210.884C142.481 209.035 141.31 207.007 140.373 204.802C139.437 202.596 138.701 200.32 138.165 197.972C137.63 195.624 137.229 193.241 136.961 190.822C136.76 188.403 136.66 186.02 136.66 183.672C136.66 180.826 136.794 177.874 137.061 174.815C137.396 171.756 137.898 168.732 138.567 165.744C139.236 162.756 140.106 159.875 141.176 157.1C142.314 154.326 143.686 151.765 145.292 149.417C145.76 148.776 146.362 147.994 147.098 147.069C147.834 146.144 148.57 145.468 149.306 145.041C151.113 143.974 153.12 143.085 155.329 142.374C157.604 141.662 159.946 141.129 162.354 140.773C164.763 140.346 167.139 140.061 169.481 139.919C171.89 139.706 174.098 139.599 176.105 139.599C179.919 139.599 183.733 139.848 187.547 140.346C191.361 140.773 195.075 141.555 198.688 142.694C198.555 144.615 198.454 146.571 198.387 148.563C198.32 150.484 198.287 152.405 198.287 154.326C198.287 158.95 198.387 163.61 198.588 168.305C195.577 167.096 192.432 166.242 189.153 165.744C185.875 165.175 182.629 164.89 179.417 164.89C178.748 164.89 177.778 164.962 176.507 165.104C175.235 165.175 173.797 165.317 172.191 165.531C170.585 165.673 168.912 165.886 167.172 166.171C165.499 166.456 163.927 166.811 162.455 167.238C160.983 167.665 159.678 168.163 158.54 168.732C157.47 169.301 156.767 169.906 156.433 170.546C156.165 171.115 155.931 171.934 155.73 173.001C155.596 173.997 155.462 175.064 155.329 176.202C155.262 177.34 155.195 178.443 155.128 179.51C155.128 180.577 155.128 181.431 155.128 182.071C155.128 182.712 155.195 183.992 155.329 185.913C155.462 187.834 155.63 189.897 155.83 192.103C156.031 194.237 156.265 196.193 156.533 197.972C156.868 199.751 157.202 200.782 157.537 201.067C157.871 201.28 158.407 201.422 159.143 201.494C159.946 201.494 160.481 201.494 160.749 201.494C164.027 201.494 167.54 201.316 171.287 200.96C175.035 200.604 178.815 200.142 182.629 199.573C186.51 198.932 190.324 198.292 194.071 197.652C197.819 196.94 201.298 196.265 204.51 195.624Z" fill="url(#paint6_linear_72_3)"/>
<path d="M270.152 158.808V166.278L250.781 167.345C250.513 171.471 250.312 175.562 250.178 179.617C250.045 183.672 249.978 187.727 249.978 191.783C249.978 196.763 249.844 201.743 249.576 206.723C249.375 211.631 249.108 216.54 248.773 221.449C246.364 221.591 243.955 221.698 241.547 221.769C239.138 221.912 236.729 221.983 234.32 221.983C233.45 221.983 232.58 221.947 231.71 221.876C230.907 221.876 230.104 221.876 229.301 221.876C229.435 217.536 229.536 213.232 229.602 208.964C229.736 204.624 229.803 200.32 229.803 196.051C229.803 191.783 229.703 187.514 229.502 183.245C229.301 178.906 229.067 174.566 228.8 170.226C226.859 170.297 224.885 170.368 222.878 170.44C220.937 170.511 218.963 170.546 216.956 170.546C215.818 170.546 214.681 170.546 213.543 170.546C212.473 170.546 211.369 170.511 210.231 170.44C210.03 165.175 209.896 159.946 209.83 154.753C209.763 149.559 209.696 144.366 209.629 139.172C219.666 139.386 229.636 139.706 239.539 140.133C249.442 140.488 259.379 140.808 269.349 141.093C269.617 144.152 269.817 147.14 269.951 150.057C270.085 152.903 270.152 155.82 270.152 158.808Z" fill="url(#paint7_linear_72_3)"/>
<path d="M364.098 175.348C364.098 176.273 364.098 177.198 364.098 178.123C364.098 178.977 364.065 179.83 363.998 180.684C363.931 181.396 363.831 182.641 363.697 184.419C363.63 186.198 363.496 188.261 363.295 190.609C363.162 192.885 362.961 195.304 362.693 197.865C362.493 200.426 362.225 202.81 361.89 205.015C361.623 207.149 361.322 208.999 360.987 210.564C360.652 212.129 360.318 213.09 359.983 213.446C357.976 215.58 355.567 217.181 352.757 218.248C350.013 219.244 347.136 219.92 344.125 220.275C341.114 220.631 338.103 220.773 335.091 220.702C332.08 220.631 329.27 220.595 326.66 220.595C325.791 220.595 324.318 220.595 322.244 220.595C320.17 220.524 317.794 220.453 315.118 220.382C312.508 220.311 309.765 220.204 306.887 220.062C304.01 219.848 301.3 219.599 298.757 219.315C296.282 218.959 294.107 218.568 292.233 218.141C290.427 217.643 289.289 217.038 288.821 216.327C288.286 215.544 287.817 214.691 287.416 213.766C287.014 212.841 286.646 211.952 286.312 211.098C285.442 208.75 284.639 206.26 283.903 203.628C283.167 200.924 282.531 198.185 281.996 195.411C281.527 192.565 281.126 189.755 280.791 186.98C280.524 184.206 280.39 181.573 280.39 179.083C280.39 177.732 280.49 175.989 280.691 173.854C280.892 171.649 281.159 169.301 281.494 166.811C281.828 164.25 282.23 161.653 282.698 159.021C283.167 156.389 283.669 153.934 284.204 151.658C284.806 149.381 285.442 147.425 286.111 145.788C286.78 144.081 287.516 142.943 288.319 142.374C288.988 141.876 290.226 141.413 292.033 140.986C293.839 140.559 295.947 140.204 298.356 139.919C300.765 139.563 303.341 139.279 306.084 139.065C308.828 138.781 311.438 138.567 313.913 138.425C316.389 138.212 318.631 138.069 320.638 137.998C322.646 137.927 324.118 137.892 325.054 137.892C326.326 137.892 328.032 137.963 330.173 138.105C332.381 138.247 334.757 138.496 337.3 138.852C339.842 139.137 342.419 139.528 345.028 140.026C347.638 140.453 350.047 140.986 352.255 141.627C354.53 142.267 356.47 142.978 358.076 143.761C359.682 144.543 360.686 145.397 361.087 146.322C361.422 147.105 361.723 148.243 361.991 149.737C362.325 151.16 362.593 152.796 362.794 154.646C362.994 156.496 363.162 158.452 363.295 160.515C363.496 162.578 363.63 164.57 363.697 166.491C363.831 168.341 363.931 170.048 363.998 171.613C364.065 173.179 364.098 174.424 364.098 175.348ZM346.132 178.87C346.132 177.447 346.065 175.953 345.931 174.388C345.798 172.752 345.363 171.329 344.627 170.119C344.091 169.266 342.787 168.59 340.712 168.092C338.705 167.594 336.463 167.238 333.987 167.025C331.579 166.811 329.237 166.705 326.961 166.705C324.686 166.633 323.081 166.598 322.144 166.598C321.408 166.598 320.103 166.669 318.229 166.811C316.423 166.954 314.482 167.203 312.408 167.558C310.4 167.843 308.527 168.234 306.787 168.732C305.047 169.159 303.977 169.693 303.575 170.333C303.174 170.831 302.839 171.791 302.572 173.214C302.371 174.566 302.17 176.06 301.969 177.696C301.836 179.261 301.735 180.791 301.668 182.285C301.601 183.708 301.568 184.739 301.568 185.38C301.568 185.949 301.568 186.802 301.568 187.941C301.635 189.079 301.735 190.253 301.869 191.462C302.003 192.672 302.137 193.81 302.27 194.877C302.471 195.944 302.739 196.727 303.073 197.225C303.274 197.581 303.876 197.901 304.88 198.185C305.884 198.47 307.088 198.755 308.493 199.039C309.965 199.253 311.505 199.43 313.11 199.573C314.716 199.715 316.255 199.857 317.727 200C319.266 200.071 320.605 200.142 321.742 200.213C322.947 200.213 323.783 200.213 324.252 200.213C325.054 200.213 326.426 200.142 328.367 200C330.374 199.857 332.448 199.644 334.59 199.359C336.798 199.004 338.805 198.612 340.612 198.185C342.485 197.687 343.69 197.118 344.225 196.478C344.627 195.98 344.961 194.948 345.229 193.383C345.496 191.747 345.697 190.004 345.831 188.154C345.965 186.233 346.032 184.419 346.032 182.712C346.099 180.933 346.132 179.653 346.132 178.87Z" fill="url(#paint8_linear_72_3)"/>
<path d="M449.815 167.238C449.815 173.072 448.142 177.661 444.796 181.004C441.45 184.348 437.034 186.162 431.547 186.447C438.172 198.185 443.96 210.209 448.911 222.516L419.603 223.263C419.068 217.501 418.265 212.201 417.194 207.363C416.124 202.525 414.618 197.438 412.678 192.103C410.469 192.245 408.261 192.423 406.053 192.636C403.912 192.85 401.771 193.028 399.629 193.17L400.131 217.394C396.317 217.607 392.503 217.714 388.689 217.714C386.749 217.714 384.842 217.679 382.968 217.607C381.161 217.536 379.321 217.394 377.448 217.181C377.916 210.635 378.351 204.126 378.752 197.652C379.154 191.107 379.388 184.597 379.455 178.123C379.656 166.598 379.957 155.073 380.358 143.547C386.648 143.192 392.905 142.8 399.128 142.374C405.417 141.947 411.707 141.733 417.997 141.733C419.603 141.733 421.343 141.769 423.216 141.84C425.09 141.911 426.964 142.125 428.837 142.48C430.778 142.765 432.618 143.192 434.358 143.761C436.164 144.33 437.77 145.077 439.175 146.002C442.588 148.278 445.198 151.338 447.004 155.179C448.878 158.95 449.815 162.97 449.815 167.238ZM426.529 165.531C426.529 164.962 426.495 164.179 426.428 163.183C426.428 162.187 426.361 161.191 426.228 160.195C426.094 159.128 425.893 158.167 425.625 157.314C425.358 156.389 424.99 155.713 424.521 155.286C424.187 155.002 423.618 154.788 422.815 154.646C422.012 154.504 421.142 154.397 420.205 154.326C419.335 154.183 418.466 154.112 417.596 154.112C416.793 154.041 416.224 154.006 415.889 154.006C413.213 154.006 410.57 154.148 407.96 154.432C405.417 154.717 402.875 155.073 400.332 155.5L403.042 176.202C404.514 176.558 406.053 176.807 407.659 176.949C409.265 177.091 410.837 177.163 412.376 177.163C413.046 177.163 414.016 177.127 415.287 177.056C416.625 176.985 417.964 176.842 419.302 176.629C420.707 176.416 421.979 176.131 423.116 175.775C424.321 175.348 425.157 174.815 425.625 174.175C425.826 173.89 425.993 173.356 426.127 172.574C426.261 171.72 426.328 170.866 426.328 170.013C426.395 169.088 426.428 168.199 426.428 167.345C426.495 166.491 426.529 165.886 426.529 165.531Z" fill="url(#paint9_linear_72_3)"/>
<defs>
<linearGradient id="paint0_linear_72_3" x1="226.217" y1="59.5364" x2="226.244" y2="125.525" gradientUnits="userSpaceOnUse">
<stop stop-color="#62EF24"/>
<stop offset="1" stop-color="#37971C"/>
</linearGradient>
<linearGradient id="paint1_linear_72_3" x1="226.217" y1="59.5364" x2="226.244" y2="125.525" gradientUnits="userSpaceOnUse">
<stop stop-color="#62EF24"/>
<stop offset="1" stop-color="#37971C"/>
</linearGradient>
<linearGradient id="paint2_linear_72_3" x1="226.217" y1="59.5364" x2="226.244" y2="125.525" gradientUnits="userSpaceOnUse">
<stop stop-color="#62EF24"/>
<stop offset="1" stop-color="#37971C"/>
</linearGradient>
<linearGradient id="paint3_linear_72_3" x1="226.217" y1="59.5364" x2="226.244" y2="125.525" gradientUnits="userSpaceOnUse">
<stop stop-color="#62EF24"/>
<stop offset="1" stop-color="#37971C"/>
</linearGradient>
<linearGradient id="paint4_linear_72_3" x1="226.363" y1="1.08654" x2="226.363" y2="223.797" gradientUnits="userSpaceOnUse">
<stop stop-color="white"/>
<stop offset="1" stop-color="#FAFAFA"/>
</linearGradient>
<linearGradient id="paint5_linear_72_3" x1="226.363" y1="1.08654" x2="226.363" y2="223.797" gradientUnits="userSpaceOnUse">
<stop stop-color="white"/>
<stop offset="1" stop-color="#FAFAFA"/>
</linearGradient>
<linearGradient id="paint6_linear_72_3" x1="226.363" y1="1.08654" x2="226.363" y2="223.797" gradientUnits="userSpaceOnUse">
<stop stop-color="white"/>
<stop offset="1" stop-color="#FAFAFA"/>
</linearGradient>
<linearGradient id="paint7_linear_72_3" x1="226.363" y1="1.08654" x2="226.363" y2="223.797" gradientUnits="userSpaceOnUse">
<stop stop-color="white"/>
<stop offset="1" stop-color="#FAFAFA"/>
</linearGradient>
<linearGradient id="paint8_linear_72_3" x1="226.363" y1="1.08654" x2="226.363" y2="223.797" gradientUnits="userSpaceOnUse">
<stop stop-color="white"/>
<stop offset="1" stop-color="#FAFAFA"/>
</linearGradient>
<linearGradient id="paint9_linear_72_3" x1="226.363" y1="1.08654" x2="226.363" y2="223.797" gradientUnits="userSpaceOnUse">
<stop stop-color="white"/>
<stop offset="1" stop-color="#FAFAFA"/>
</linearGradient>
</defs>
</svg>
